<svg xmlns="http://www.w3.org/2000/svg" xmlns:xlink="http://www.w3.org/1999/xlink" width="500" zoomAndPan="magnify" viewBox="0 0 375 374.999991" height="500" preserveAspectRatio="xMidYMid meet" version="1.0"><defs><clipPath id="6e3465a1d0"><path d="M 28.566406 87.070312 L 268 87.070312 L 268 375 L 28.566406 375 Z M 28.566406 87.070312 " clip-rule="nonzero"/></clipPath><clipPath id="4364302fa3"><path d="M 145.453125 100 L 350.394531 100 L 350.394531 318 L 145.453125 318 Z M 145.453125 100 " clip-rule="nonzero"/></clipPath></defs><g clip-path="url(#6e3465a1d0)"><path fill="#100f0d" d="M 228.476562 372.171875 L 263.84375 349.65625 C 267.535156 347.3125 268.621094 342.421875 266.273438 338.730469 L 229.773438 356.640625 C 226.800781 358.097656 223.453125 358.035156 220.636719 356.734375 L 260.71875 328.90625 L 259.347656 326.707031 L 216.578125 353.390625 C 216.433594 353.191406 216.261719 353.019531 216.125 352.8125 L 213.667969 348.949219 L 255.230469 320.097656 L 253.855469 317.898438 L 210.949219 344.671875 L 208.101562 340.199219 L 249.738281 311.296875 L 248.367188 309.097656 L 205.375 335.921875 L 202.53125 331.453125 L 244.242188 302.492188 L 242.875 300.296875 L 199.804688 327.167969 L 196.960938 322.703125 L 238.75 293.691406 L 237.378906 291.492188 L 194.230469 318.414062 L 191.394531 313.953125 L 233.257812 284.890625 L 231.886719 282.691406 L 188.660156 309.65625 L 185.820312 305.203125 L 227.769531 276.082031 L 226.394531 273.890625 L 183.089844 300.90625 L 180.253906 296.453125 L 222.273438 267.28125 L 220.90625 265.082031 L 177.519531 292.152344 L 174.6875 287.703125 L 216.78125 258.480469 L 215.414062 256.28125 L 171.945312 283.398438 L 169.117188 278.953125 L 211.289062 249.675781 L 209.917969 247.476562 L 166.375 274.644531 L 163.546875 270.203125 L 205.796875 240.875 L 204.425781 238.675781 L 160.800781 265.894531 L 157.980469 261.453125 L 200.308594 232.070312 L 198.933594 229.875 L 155.230469 257.140625 L 152.40625 252.703125 L 194.8125 223.265625 L 193.445312 221.070312 L 149.65625 248.386719 L 146.839844 243.953125 L 189.320312 214.464844 L 187.949219 212.265625 L 144.316406 239.484375 C 142.667969 234.910156 144.324219 229.644531 148.601562 226.925781 L 181.699219 205.855469 C 179.566406 202.511719 175.273438 201.273438 171.671875 202.945312 C 148.738281 213.582031 138.597656 208.898438 138.597656 208.898438 C 106.890625 206.027344 45.207031 107.246094 34.367188 89.488281 C 33.449219 87.996094 31.492188 87.550781 30.015625 88.488281 C 28.554688 89.417969 28.128906 91.351562 29.054688 92.8125 L 203.3125 366.582031 C 208.71875 375.078125 219.984375 377.574219 228.476562 372.171875 " fill-opacity="1" fill-rule="nonzero"/></g><path fill="#100f0d" d="M 247.964844 159.480469 C 247.964844 159.480469 237.054688 158.265625 223.113281 149.777344 C 223.113281 149.777344 241.90625 109.171875 220.082031 58.863281 L 229.175781 55.835938 C 229.175781 55.835938 246.75 125.535156 247.964844 159.480469 " fill-opacity="1" fill-rule="nonzero"/><path fill="#100f0d" d="M 234.027344 205.539062 L 264.933594 235.847656 L 292.210938 347.371094 Z M 234.027344 205.539062 " fill-opacity="1" fill-rule="nonzero"/><g clip-path="url(#4364302fa3)"><path fill="#100f0d" d="M 241.292969 187.695312 C 238.203125 187.695312 235.707031 185.191406 235.707031 182.109375 C 235.707031 179.023438 238.203125 176.523438 241.292969 176.523438 C 244.378906 176.523438 246.878906 179.023438 246.878906 182.109375 C 246.878906 185.191406 244.378906 187.695312 241.292969 187.695312 Z M 248.570312 166.75 C 189.171875 149.777344 152.808594 100.078125 152.808594 100.078125 L 145.535156 104.324219 L 175.835938 136.445312 C 192.203125 155.234375 350.394531 317.671875 350.394531 317.671875 L 248.570312 166.75 " fill-opacity="1" fill-rule="nonzero"/></g><path fill="#100f0d" d="M 130 54.597656 C 116.875 54.597656 106.195312 65.273438 106.195312 78.398438 C 106.195312 91.523438 116.875 102.203125 130 102.203125 C 143.125 102.203125 153.800781 91.523438 153.800781 78.398438 C 153.800781 65.273438 143.125 54.597656 130 54.597656 Z M 130 110.21875 C 112.453125 110.21875 98.183594 95.945312 98.183594 78.398438 C 98.183594 60.859375 112.453125 46.582031 130 46.582031 C 147.542969 46.582031 161.816406 60.859375 161.816406 78.398438 C 161.816406 95.945312 147.542969 110.21875 130 110.21875 " fill-opacity="1" fill-rule="nonzero"/><path fill="#100f0d" d="M 217.023438 8.019531 C 203.902344 8.019531 193.226562 18.695312 193.226562 31.820312 C 193.226562 44.945312 203.902344 55.621094 217.023438 55.621094 C 230.148438 55.621094 240.828125 44.945312 240.828125 31.820312 C 240.828125 18.695312 230.148438 8.019531 217.023438 8.019531 Z M 217.023438 63.640625 C 199.484375 63.640625 185.207031 49.363281 185.207031 31.820312 C 185.207031 14.277344 199.484375 0.00390625 217.023438 0.00390625 C 234.570312 0.00390625 248.847656 14.277344 248.847656 31.820312 C 248.847656 49.363281 234.570312 63.640625 217.023438 63.640625 " fill-opacity="1" fill-rule="nonzero"/><path fill="#100f0d" d="M 102.191406 73.105469 C 102.191406 73.105469 101.304688 52.792969 88.171875 50.589844 C 82.453125 49.628906 77.613281 49.820312 73.972656 50.34375 C 71.773438 50.65625 70.664062 47.757812 72.511719 46.527344 C 76.078125 44.148438 81.25 42.621094 88.171875 42.59375 C 107.097656 42.503906 94.578125 51.75 130 48 C 130 48 108.867188 49.160156 102.191406 73.105469 " fill-opacity="1" fill-rule="nonzero"/><path fill="#100f0d" d="M 192.164062 44.277344 C 192.164062 44.277344 187.050781 47.613281 178.554688 48.773438 L 182.417969 55.835938 C 182.417969 55.835938 192.644531 57.242188 200.46875 54.167969 L 192.164062 44.277344 " fill-opacity="1" fill-rule="nonzero"/></svg>