<svg version="1.1" viewBox="0.0 0.0 966.6010498687664 100.0" fill="none" stroke="none" stroke-linecap="square" stroke-miterlimit="10" xmlns:xlink="http://www.w3.org/1999/xlink" xmlns="http://www.w3.org/2000/svg"><clipPath id="p.0"><path d="m0 0l966.6011 0l0 100.0l-966.6011 0l0 -100.0z" clip-rule="nonzero"/></clipPath><g clip-path="url(#p.0)"><path fill="#000000" fill-opacity="0.0" d="m0 0l966.6011 0l0 100.0l-966.6011 0z" fill-rule="evenodd"/><path fill="#ffffff" d="m5.2926364 14.945899l0 70.03259l49.529884 0l0 -11.799492l-36.38114 0l0 -19.06071l32.694168 0l0 -11.799488l-32.694168 0l0 -15.525642l35.137344 0l0 -11.84726z" fill-rule="evenodd"/><path fill="#ffffff" d="m145.44221 31.283651l8.973129 25.98754l-17.76857 0l8.795441 -25.98754zm-86.13313 -16.337753l23.276825 70.03259l14.03717 0l23.321243 -70.03259l-13.948326 0l-15.9472885 51.831764l-16.480347 -51.831764zm79.336655 0l-25.364632 70.03259l13.948326 0l5.375 -15.907814l26.030945 0l5.6859436 15.907814l14.303696 0l-26.075378 -70.03259z" fill-rule="evenodd"/><path fill="#ffffff" d="m183.06715 14.945899l0 11.84726l2.3543396 13.041538l9.195236 0l2.0433807 -13.041538l0 -11.84726z" fill-rule="evenodd"/><path fill="#ffffff" d="m230.0206 13.751618c-5.0048065 0 -9.279129 0.8121109 -12.822983 2.4363317c-3.533966 1.6242218 -6.2436676 3.9915485 -8.12912 7.101986c-1.8755646 3.099823 -2.8133545 6.4331894 -2.8133545 10.000107c0 5.541462 1.9989624 10.238964 5.996887 14.092506c2.8429718 2.738884 7.788559 5.047825 14.836761 6.9268265c5.4786377 1.4649811 8.98793 2.4841003 10.527878 3.0573578c2.2506866 0.85988235 3.8251648 1.8736877 4.72348 3.0414314c0.90815735 1.1571236 1.3622437 2.5637207 1.3622437 4.2197876c0 2.5796509 -1.0759888 4.8355103 -3.227951 6.7675934c-2.142105 1.921463 -5.3305664 2.8821945 -9.565414 2.8821945c-3.9979248 0 -7.1765137 -1.0828171 -9.535797 -3.2484436c-2.3493958 -2.1656265 -3.9090881 -5.5573807 -4.679062 -10.175266l-12.7933655 1.3375931c0.8588104 7.8344765 3.4944916 13.800571 7.907013 17.898281c4.4125366 4.0870895 10.735184 6.130638 18.967957 6.130638c5.6563263 0 10.379791 -0.84926605 14.170425 -2.5477982c3.7906342 -1.7091522 6.7224426 -4.3153305 8.795441 -7.8185577c2.072998 -3.5032196 3.109497 -7.261223 3.109497 -11.274002c0 -4.4268 -0.86868286 -8.142342 -2.6060486 -11.146614c-1.7275085 -3.0148926 -4.1262665 -5.3875313 -7.196274 -7.1179123c-3.0601501 -1.7409935 -7.788559 -3.423603 -14.185242 -5.047825c-6.3966827 -1.624218 -10.424225 -3.1847458 -12.082626 -4.681576c-1.3030243 -1.1783562 -1.9545441 -2.5955696 -1.9545441 -4.2516403c0 -1.8153038 0.6959381 -3.2643642 2.0878143 -4.3471794c2.1618347 -1.6879158 5.152878 -2.5318737 8.973114 -2.5318737c3.7017975 0 6.475662 0.7908802 8.321625 2.3726368c1.8558197 1.5711441 3.0650787 4.1560955 3.6277466 7.75486l13.148743 -0.6210251c-0.20730591 -6.4331894 -2.3790283 -11.576557 -6.515152 -15.430101c-4.126251 -3.8535442 -10.276154 -5.7803164 -18.449692 -5.7803164z" fill-rule="evenodd"/><path fill="#ffffff" d="m313.93268 26.602074c6.1893616 0 9.935577 0.079618454 11.238617 0.23885536c2.1914368 0.28662872 3.8399658 1.1093559 4.945587 2.4681797c1.115448 1.3482113 1.6731873 3.1051292 1.6731873 5.270756c0 2.2611732 -0.6465759 4.0870934 -1.9397278 5.477768c-1.2832947 1.3800583 -3.0502625 2.213398 -5.3009644 2.5000267c-1.2438049 0.15923691 -4.4273376 0.23885345 -9.550598 0.23885345l-8.617767 0l0 -16.194439zm3.0650635 27.850616c5.982086 0 9.866486 0.33439636 11.653229 1.0031929c1.7965698 0.66879654 3.1687317 1.7356873 4.1163635 3.2006721c0.94766235 1.4649849 1.4215088 3.2484436 1.4215088 5.3503723c0 2.484108 -0.6169739 4.469261 -1.8508911 5.9554825c-1.22406 1.4755936 -2.813385 2.40448 -4.767914 2.7866516c-1.273407 0.28662872 -4.2792664 0.42993927 -9.017548 0.42993927l-12.171478 0l0 -18.72631zm-23.765472 -39.50679l0 70.03259l22.16629 0c8.380859 -0.063697815 13.666992 -0.22293091 15.858459 -0.47771454c3.4944763 -0.41401672 6.4312134 -1.5180664 8.810242 -3.3121338c2.3888855 -1.8046951 4.2693787 -4.2091827 5.64151 -7.213455c1.382019 -3.0149002 2.0730286 -6.1147156 2.0730286 -9.299461c0 -4.044628 -1.0661316 -7.563774 -3.1983643 -10.557438c-2.1322327 -2.9936638 -5.182495 -5.111519 -9.150818 -6.353569c2.813385 -1.369442 5.0393677 -3.423603 6.6780396 -6.162487c1.648529 -2.738884 2.4727783 -5.7484703 2.4727783 -9.028759c0 -3.0255108 -0.6663208 -5.7537746 -1.9989624 -8.184801c-1.3326416 -2.441639 -3.0009155 -4.394951 -5.004822 -5.859934c-1.9940186 -1.4649849 -4.2595215 -2.4257164 -6.7964478 -2.8821964c-2.5270996 -0.46709728 -6.367096 -0.7006445 -11.5199585 -0.7006445z" fill-rule="evenodd"/><path fill="#ffffff" d="m384.42944 31.283651l8.973145 25.98754l-17.768585 0l8.795441 -25.98754zm-6.7964783 -16.337753l-25.364624 70.03259l13.948334 0l5.375 -15.907814l26.030945 0l5.6859436 15.907814l14.30368 0l-26.075348 -70.03259z" fill-rule="evenodd"/><path fill="#ffffff" d="m448.04092 26.79316c5.3305664 0 8.528931 0.079618454 9.595032 0.23885536c2.1322327 0.38216972 3.7807617 1.3004398 4.945587 2.7548065c1.1747131 1.4437523 1.7620544 3.3439846 1.7620544 5.700697c0 2.1019325 -0.44421387 3.8535461 -1.3326416 5.254833c-0.88842773 1.4012871 -2.1174316 2.3885612 -3.6869812 2.9618149c-1.5695496 0.57325363 -5.5082703 0.85988235 -11.816101 0.85988235l-9.728302 0l0 -17.77089zm-23.410095 -11.84726l0 70.03259l13.148743 0l0 -29.235981l2.6652832 0c3.0206604 0 5.2269287 0.26539612 6.618805 0.79618454c1.3918762 0.52017593 2.7097168 1.4915237 3.9534912 2.9140472c1.2438049 1.4118996 3.5537415 4.8408127 6.9297485 10.286736l9.506195 15.239014l15.725189 0l-7.9514465 -13.662567c-3.1390991 -5.445915 -5.6365967 -9.235767 -7.492401 -11.369549c-1.8459778 -2.1337814 -4.1904297 -4.0923996 -7.033386 -5.8758583c5.7155457 -0.89172745 10.009613 -3.0467415 12.882202 -6.4650383c2.872589 -3.4289093 4.3088684 -7.7707825 4.3088684 -13.025616c0 -4.140171 -0.94766235 -7.818554 -2.8429565 -11.035149c-1.8953247 -3.2165947 -4.4224243 -5.4512253 -7.5812683 -6.7038918c-3.1489868 -1.2632847 -8.2031555 -1.8949251 -15.162506 -1.8949251z" fill-rule="evenodd"/><path fill="#ffffff" d="m511.03052 26.602074c6.189392 0 9.935608 0.079618454 11.238586 0.23885536c2.1914673 0.28662872 3.8400269 1.1093559 4.9456177 2.4681797c1.1154785 1.3482113 1.6732178 3.1051292 1.6732178 5.270756c0 2.2611732 -0.64660645 4.0870934 -1.9397583 5.477768c-1.2832642 1.3800583 -3.050293 2.213398 -5.3009644 2.5000267c-1.2437744 0.15923691 -4.427307 0.23885345 -9.550598 0.23885345l-8.617767 0l0 -16.194439zm3.0650635 27.850616c5.9820557 0 9.866516 0.33439636 11.653198 1.0031929c1.7966309 0.66879654 3.1687622 1.7356873 4.116394 3.2006721c0.9476929 1.4649849 1.4215088 3.2484436 1.4215088 5.3503723c0 2.484108 -0.6170044 4.469261 -1.8508911 5.9554825c-1.22406 1.4755936 -2.8133545 2.40448 -4.7678833 2.7866516c-1.2734375 0.28662872 -4.279297 0.42993927 -9.017578 0.42993927l-12.171478 0l0 -18.72631zm-23.765472 -39.50679l0 70.03259l22.16629 0c8.380859 -0.063697815 13.666992 -0.22293091 15.858459 -0.47771454c3.4945068 -0.41401672 6.4312134 -1.5180664 8.810242 -3.3121338c2.388916 -1.8046951 4.269409 -4.2091827 5.6415405 -7.213455c1.381958 -3.0149002 2.072998 -6.1147156 2.072998 -9.299461c0 -4.044628 -1.0661011 -7.563774 -3.1983643 -10.557438c-2.1322021 -2.9936638 -5.182495 -5.111519 -9.150818 -6.353569c2.8133545 -1.369442 5.0393677 -3.423603 6.6780396 -6.162487c1.6484985 -2.738884 2.4727783 -5.7484703 2.4727783 -9.028759c0 -3.0255108 -0.6663208 -5.7537746 -1.9989624 -8.184801c-1.3326416 -2.441639 -3.0009155 -4.394951 -5.004822 -5.859934c-1.9940186 -1.4649849 -4.2595215 -2.4257164 -6.7964478 -2.8821964c-2.5270996 -0.46709728 -6.3670654 -0.7006445 -11.5199585 -0.7006445z" fill-rule="evenodd"/><path fill="#ffffff" d="m555.985 14.945899l0 70.03259l49.529907 0l0 -11.799492l-36.381165 0l0 -19.06071l32.694153 0l0 -11.799488l-32.694153 0l0 -15.525642l35.13733 0l0 -11.84726z" fill-rule="evenodd"/><path fill="#ffffff" d="m640.11914 26.79316c5.3305664 0 8.528931 0.079618454 9.595032 0.23885536c2.1322632 0.38216972 3.7807617 1.3004398 4.9456177 2.7548065c1.1746826 1.4437523 1.7620239 3.3439846 1.7620239 5.700697c0 2.1019325 -0.44421387 3.8535461 -1.3326416 5.254833c-0.88842773 1.4012871 -2.1174316 2.3885612 -3.6869507 2.9618149c-1.5695801 0.57325363 -5.508301 0.85988235 -11.816101 0.85988235l-9.7283325 0l0 -17.77089zm-23.410095 -11.84726l0 70.03259l13.148743 0l0 -29.235981l2.6652832 0c3.020691 0 5.2269287 0.26539612 6.6188354 0.79618454c1.3918457 0.52017593 2.7096558 1.4915237 3.9534912 2.9140472c1.2437744 1.4118996 3.553711 4.8408127 6.9297485 10.286736l9.506165 15.239014l15.725159 0l-7.951416 -13.662567c-3.1390991 -5.445915 -5.6365967 -9.235767 -7.4924316 -11.369549c-1.8459473 -2.1337814 -4.1903687 -4.0923996 -7.033386 -5.8758583c5.715576 -0.89172745 10.009644 -3.0467415 12.882202 -6.4650383c2.8726196 -3.4289093 4.308899 -7.7707825 4.308899 -13.025616c0 -4.140171 -0.94763184 -7.818554 -2.8429565 -11.035149c-1.8953247 -3.2165947 -4.4224243 -5.4512253 -7.581238 -6.7038918c-3.1489868 -1.2632847 -8.203186 -1.8949251 -15.162537 -1.8949251z" fill-rule="evenodd"/><path fill="#ffffff" d="m730.4279 13.751618c-5.004822 0 -9.279175 0.8121109 -12.822998 2.4363317c-3.5339966 1.6242218 -6.2437134 3.9915485 -8.12915 7.101986c-1.8755493 3.099823 -2.8133545 6.4331894 -2.8133545 10.000107c0 5.541462 1.9989624 10.238964 5.996887 14.092506c2.8430176 2.738884 7.788574 5.047825 14.836792 6.9268265c5.4786377 1.4649811 8.987915 2.4841003 10.527893 3.0573578c2.2506714 0.85988235 3.8251343 1.8736877 4.7234497 3.0414314c0.9082031 1.1571236 1.3622437 2.5637207 1.3622437 4.2197876c0 2.5796509 -1.0759888 4.8355103 -3.2279663 6.7675934c-2.1420898 1.921463 -5.3305664 2.8821945 -9.565369 2.8821945c-3.9979248 0 -7.1765137 -1.0828171 -9.535828 -3.2484436c-2.3493652 -2.1656265 -3.9090576 -5.5573807 -4.679016 -10.175266l-12.793396 1.3375931c0.8588257 7.8344765 3.4945068 13.800571 7.9069824 17.898281c4.4125366 4.0870895 10.7352295 6.130638 18.967957 6.130638c5.656372 0 10.379822 -0.84926605 14.170471 -2.5477982c3.7905884 -1.7091522 6.722412 -4.3153305 8.79541 -7.8185577c2.072998 -3.5032196 3.109497 -7.261223 3.109497 -11.274002c0 -4.4268 -0.86865234 -8.142342 -2.606018 -11.146614c-1.7275391 -3.0148926 -4.1262817 -5.3875313 -7.196289 -7.1179123c-3.0601196 -1.7409935 -7.788574 -3.423603 -14.185242 -5.047825c-6.3966675 -1.624218 -10.424255 -3.1847458 -12.082642 -4.681576c-1.3030396 -1.1783562 -1.9545288 -2.5955696 -1.9545288 -4.2516403c0 -1.8153038 0.69592285 -3.2643642 2.0878296 -4.3471794c2.1618042 -1.6879158 5.152832 -2.5318737 8.9730835 -2.5318737c3.7017822 0 6.475708 0.7908802 8.321655 2.3726368c1.855835 1.5711441 3.0650635 4.1560955 3.6277466 7.75486l13.148743 -0.6210251c-0.20733643 -6.4331894 -2.3790283 -11.576557 -6.5151367 -15.430101c-4.1262817 -3.8535442 -10.276184 -5.7803164 -18.449707 -5.7803164z" fill-rule="evenodd"/><path fill="#ffffff" d="m768.3638 14.945899l0 70.03259l13.148743 0l0 -30.621346l25.764465 0l0 30.621346l13.148743 0l0 -70.03259l-13.148743 0l0 27.563988l-25.764465 0l0 -27.563988z" fill-rule="evenodd"/><path fill="#ffffff" d="m862.98145 25.837734c5.4193726 0 9.762817 1.9745426 13.030273 5.9236298c3.2772827 3.9490852 4.9159546 9.936413 4.9159546 17.961975c0 8.121105 -1.6830444 14.214584 -5.0492554 18.280453c-3.3562622 4.055237 -7.6552734 6.082863 -12.896973 6.082863c-5.2417603 0 -9.56543 -2.0435486 -12.971069 -6.130638c-3.4056396 -4.0977097 -5.1084595 -10.111572 -5.1084595 -18.041592c0 -8.057411 1.6583862 -14.08189 4.9751587 -18.073442c3.3168335 -4.002163 7.6849365 -6.003248 13.10437 -6.003248zm-0.13330078 -12.086116c-5.3009644 0 -9.97998 0.9235773 -14.03717 2.77073c-3.050232 1.369442 -5.8587036 3.4713745 -8.425232 6.3057995c-2.5567017 2.834425 -4.5754395 6.035097 -6.0561523 9.602013c-1.9841309 4.8408165 -2.9761963 10.82814 -2.9761963 17.961975c0 11.146614 2.857727 19.89936 8.573303 26.25824c5.715576 6.348259 13.415283 9.522392 23.099121 9.522392c9.56543 0 17.205933 -3.1900558 22.921448 -9.57016c5.715576 -6.390732 8.573364 -15.2390175 8.573364 -26.544868c0 -11.401398 -2.8824463 -20.302765 -8.6474 -26.704107c-5.755005 -6.4013424 -13.430054 -9.602014 -23.025085 -9.602014z" fill-rule="evenodd"/><path fill="#ffffff" d="m924.28296 26.79316c4.7382812 0 7.892212 0.15923691 9.461792 0.47771072c2.1322021 0.41401672 3.894287 1.4490604 5.286133 3.1051292c1.3918457 1.6560669 2.0878296 3.7580032 2.0878296 6.3057976c0 2.0700874 -0.49853516 3.885395 -1.4955444 5.445919c-0.9871216 1.5605278 -2.354309 2.707035 -4.1015625 3.4395294c-1.7472534 0.73249054 -5.212097 1.0987358 -10.394653 1.0987358l-7.196228 0l0 -19.872822zm-19.500977 -11.84726l0 70.03259l13.148743 0l0 -26.41748l8.573303 0c5.9525146 0 10.498291 -0.33439636 13.63739 -1.0031967c2.3099365 -0.5414047 4.5803833 -1.6454506 6.8112793 -3.3121338c2.2408447 -1.6772995 4.086792 -3.9809341 5.537903 -6.910904c1.4510498 -2.929966 2.1766357 -6.544655 2.1766357 -10.844063c0 -5.573309 -1.258606 -10.11688 -3.7758179 -13.63072c-2.517212 -3.524454 -5.6415405 -5.8121624 -9.372925 -6.8631296c-2.4284058 -0.7006445 -7.640503 -1.0509663 -15.636353 -1.0509663z" fill-rule="evenodd"/><path stroke="#000000" stroke-width="4.0" stroke-linejoin="round" stroke-linecap="butt" d="m5.2926364 14.945899l0 70.03259l49.529884 0l0 -11.799492l-36.38114 0l0 -19.06071l32.694168 0l0 -11.799488l-32.694168 0l0 -15.525642l35.137344 0l0 -11.84726z" fill-rule="evenodd"/><path stroke="#000000" stroke-width="4.0" stroke-linejoin="round" stroke-linecap="butt" d="m145.44221 31.283651l8.973129 25.98754l-17.76857 0l8.795441 -25.98754zm-86.13313 -16.337753l23.276825 70.03259l14.03717 0l23.321243 -70.03259l-13.948326 0l-15.9472885 51.831764l-16.480347 -51.831764zm79.336655 0l-25.364632 70.03259l13.948326 0l5.375 -15.907814l26.030945 0l5.6859436 15.907814l14.303696 0l-26.075378 -70.03259z" fill-rule="evenodd"/><path stroke="#000000" stroke-width="4.0" stroke-linejoin="round" stroke-linecap="butt" d="m183.06715 14.945899l0 11.84726l2.3543396 13.041538l9.195236 0l2.0433807 -13.041538l0 -11.84726z" fill-rule="evenodd"/><path stroke="#000000" stroke-width="4.0" stroke-linejoin="round" stroke-linecap="butt" d="m230.0206 13.751618c-5.0048065 0 -9.279129 0.8121109 -12.822983 2.4363317c-3.533966 1.6242218 -6.2436676 3.9915485 -8.12912 7.101986c-1.8755646 3.099823 -2.8133545 6.4331894 -2.8133545 10.000107c0 5.541462 1.9989624 10.238964 5.996887 14.092506c2.8429718 2.738884 7.788559 5.047825 14.836761 6.9268265c5.4786377 1.4649811 8.98793 2.4841003 10.527878 3.0573578c2.2506866 0.85988235 3.8251648 1.8736877 4.72348 3.0414314c0.90815735 1.1571236 1.3622437 2.5637207 1.3622437 4.2197876c0 2.5796509 -1.0759888 4.8355103 -3.227951 6.7675934c-2.142105 1.921463 -5.3305664 2.8821945 -9.565414 2.8821945c-3.9979248 0 -7.1765137 -1.0828171 -9.535797 -3.2484436c-2.3493958 -2.1656265 -3.9090881 -5.5573807 -4.679062 -10.175266l-12.7933655 1.3375931c0.8588104 7.8344765 3.4944916 13.800571 7.907013 17.898281c4.4125366 4.0870895 10.735184 6.130638 18.967957 6.130638c5.6563263 0 10.379791 -0.84926605 14.170425 -2.5477982c3.7906342 -1.7091522 6.7224426 -4.3153305 8.795441 -7.8185577c2.072998 -3.5032196 3.109497 -7.261223 3.109497 -11.274002c0 -4.4268 -0.86868286 -8.142342 -2.6060486 -11.146614c-1.7275085 -3.0148926 -4.1262665 -5.3875313 -7.196274 -7.1179123c-3.0601501 -1.7409935 -7.788559 -3.423603 -14.185242 -5.047825c-6.3966827 -1.624218 -10.424225 -3.1847458 -12.082626 -4.681576c-1.3030243 -1.1783562 -1.9545441 -2.5955696 -1.9545441 -4.2516403c0 -1.8153038 0.6959381 -3.2643642 2.0878143 -4.3471794c2.1618347 -1.6879158 5.152878 -2.5318737 8.973114 -2.5318737c3.7017975 0 6.475662 0.7908802 8.321625 2.3726368c1.8558197 1.5711441 3.0650787 4.1560955 3.6277466 7.75486l13.148743 -0.6210251c-0.20730591 -6.4331894 -2.3790283 -11.576557 -6.515152 -15.430101c-4.126251 -3.8535442 -10.276154 -5.7803164 -18.449692 -5.7803164z" fill-rule="evenodd"/><path stroke="#000000" stroke-width="4.0" stroke-linejoin="round" stroke-linecap="butt" d="m313.93268 26.602074c6.1893616 0 9.935577 0.079618454 11.238617 0.23885536c2.1914368 0.28662872 3.8399658 1.1093559 4.945587 2.4681797c1.115448 1.3482113 1.6731873 3.1051292 1.6731873 5.270756c0 2.2611732 -0.6465759 4.0870934 -1.9397278 5.477768c-1.2832947 1.3800583 -3.0502625 2.213398 -5.3009644 2.5000267c-1.2438049 0.15923691 -4.4273376 0.23885345 -9.550598 0.23885345l-8.617767 0l0 -16.194439zm3.0650635 27.850616c5.982086 0 9.866486 0.33439636 11.653229 1.0031929c1.7965698 0.66879654 3.1687317 1.7356873 4.1163635 3.2006721c0.94766235 1.4649849 1.4215088 3.2484436 1.4215088 5.3503723c0 2.484108 -0.6169739 4.469261 -1.8508911 5.9554825c-1.22406 1.4755936 -2.813385 2.40448 -4.767914 2.7866516c-1.273407 0.28662872 -4.2792664 0.42993927 -9.017548 0.42993927l-12.171478 0l0 -18.72631zm-23.765472 -39.50679l0 70.03259l22.16629 0c8.380859 -0.063697815 13.666992 -0.22293091 15.858459 -0.47771454c3.4944763 -0.41401672 6.4312134 -1.5180664 8.810242 -3.3121338c2.3888855 -1.8046951 4.2693787 -4.2091827 5.64151 -7.213455c1.382019 -3.0149002 2.0730286 -6.1147156 2.0730286 -9.299461c0 -4.044628 -1.0661316 -7.563774 -3.1983643 -10.557438c-2.1322327 -2.9936638 -5.182495 -5.111519 -9.150818 -6.353569c2.813385 -1.369442 5.0393677 -3.423603 6.6780396 -6.162487c1.648529 -2.738884 2.4727783 -5.7484703 2.4727783 -9.028759c0 -3.0255108 -0.6663208 -5.7537746 -1.9989624 -8.184801c-1.3326416 -2.441639 -3.0009155 -4.394951 -5.004822 -5.859934c-1.9940186 -1.4649849 -4.2595215 -2.4257164 -6.7964478 -2.8821964c-2.5270996 -0.46709728 -6.367096 -0.7006445 -11.5199585 -0.7006445z" fill-rule="evenodd"/><path stroke="#000000" stroke-width="4.0" stroke-linejoin="round" stroke-linecap="butt" d="m384.42944 31.283651l8.973145 25.98754l-17.768585 0l8.795441 -25.98754zm-6.7964783 -16.337753l-25.364624 70.03259l13.948334 0l5.375 -15.907814l26.030945 0l5.6859436 15.907814l14.30368 0l-26.075348 -70.03259z" fill-rule="evenodd"/><path stroke="#000000" stroke-width="4.0" stroke-linejoin="round" stroke-linecap="butt" d="m448.04092 26.79316c5.3305664 0 8.528931 0.079618454 9.595032 0.23885536c2.1322327 0.38216972 3.7807617 1.3004398 4.945587 2.7548065c1.1747131 1.4437523 1.7620544 3.3439846 1.7620544 5.700697c0 2.1019325 -0.44421387 3.8535461 -1.3326416 5.254833c-0.88842773 1.4012871 -2.1174316 2.3885612 -3.6869812 2.9618149c-1.5695496 0.57325363 -5.5082703 0.85988235 -11.816101 0.85988235l-9.728302 0l0 -17.77089zm-23.410095 -11.84726l0 70.03259l13.148743 0l0 -29.235981l2.6652832 0c3.0206604 0 5.2269287 0.26539612 6.618805 0.79618454c1.3918762 0.52017593 2.7097168 1.4915237 3.9534912 2.9140472c1.2438049 1.4118996 3.5537415 4.8408127 6.9297485 10.286736l9.506195 15.239014l15.725189 0l-7.9514465 -13.662567c-3.1390991 -5.445915 -5.6365967 -9.235767 -7.492401 -11.369549c-1.8459778 -2.1337814 -4.1904297 -4.0923996 -7.033386 -5.8758583c5.7155457 -0.89172745 10.009613 -3.0467415 12.882202 -6.4650383c2.872589 -3.4289093 4.3088684 -7.7707825 4.3088684 -13.025616c0 -4.140171 -0.94766235 -7.818554 -2.8429565 -11.035149c-1.8953247 -3.2165947 -4.4224243 -5.4512253 -7.5812683 -6.7038918c-3.1489868 -1.2632847 -8.2031555 -1.8949251 -15.162506 -1.8949251z" fill-rule="evenodd"/><path stroke="#000000" stroke-width="4.0" stroke-linejoin="round" stroke-linecap="butt" d="m511.03052 26.602074c6.189392 0 9.935608 0.079618454 11.238586 0.23885536c2.1914673 0.28662872 3.8400269 1.1093559 4.9456177 2.4681797c1.1154785 1.3482113 1.6732178 3.1051292 1.6732178 5.270756c0 2.2611732 -0.64660645 4.0870934 -1.9397583 5.477768c-1.2832642 1.3800583 -3.050293 2.213398 -5.3009644 2.5000267c-1.2437744 0.15923691 -4.427307 0.23885345 -9.550598 0.23885345l-8.617767 0l0 -16.194439zm3.0650635 27.850616c5.9820557 0 9.866516 0.33439636 11.653198 1.0031929c1.7966309 0.66879654 3.1687622 1.7356873 4.116394 3.2006721c0.9476929 1.4649849 1.4215088 3.2484436 1.4215088 5.3503723c0 2.484108 -0.6170044 4.469261 -1.8508911 5.9554825c-1.22406 1.4755936 -2.8133545 2.40448 -4.7678833 2.7866516c-1.2734375 0.28662872 -4.279297 0.42993927 -9.017578 0.42993927l-12.171478 0l0 -18.72631zm-23.765472 -39.50679l0 70.03259l22.16629 0c8.380859 -0.063697815 13.666992 -0.22293091 15.858459 -0.47771454c3.4945068 -0.41401672 6.4312134 -1.5180664 8.810242 -3.3121338c2.388916 -1.8046951 4.269409 -4.2091827 5.6415405 -7.213455c1.381958 -3.0149002 2.072998 -6.1147156 2.072998 -9.299461c0 -4.044628 -1.0661011 -7.563774 -3.1983643 -10.557438c-2.1322021 -2.9936638 -5.182495 -5.111519 -9.150818 -6.353569c2.8133545 -1.369442 5.0393677 -3.423603 6.6780396 -6.162487c1.6484985 -2.738884 2.4727783 -5.7484703 2.4727783 -9.028759c0 -3.0255108 -0.6663208 -5.7537746 -1.9989624 -8.184801c-1.3326416 -2.441639 -3.0009155 -4.394951 -5.004822 -5.859934c-1.9940186 -1.4649849 -4.2595215 -2.4257164 -6.7964478 -2.8821964c-2.5270996 -0.46709728 -6.3670654 -0.7006445 -11.5199585 -0.7006445z" fill-rule="evenodd"/><path stroke="#000000" stroke-width="4.0" stroke-linejoin="round" stroke-linecap="butt" d="m555.985 14.945899l0 70.03259l49.529907 0l0 -11.799492l-36.381165 0l0 -19.06071l32.694153 0l0 -11.799488l-32.694153 0l0 -15.525642l35.13733 0l0 -11.84726z" fill-rule="evenodd"/><path stroke="#000000" stroke-width="4.0" stroke-linejoin="round" stroke-linecap="butt" d="m640.11914 26.79316c5.3305664 0 8.528931 0.079618454 9.595032 0.23885536c2.1322632 0.38216972 3.7807617 1.3004398 4.9456177 2.7548065c1.1746826 1.4437523 1.7620239 3.3439846 1.7620239 5.700697c0 2.1019325 -0.44421387 3.8535461 -1.3326416 5.254833c-0.88842773 1.4012871 -2.1174316 2.3885612 -3.6869507 2.9618149c-1.5695801 0.57325363 -5.508301 0.85988235 -11.816101 0.85988235l-9.7283325 0l0 -17.77089zm-23.410095 -11.84726l0 70.03259l13.148743 0l0 -29.235981l2.6652832 0c3.020691 0 5.2269287 0.26539612 6.6188354 0.79618454c1.3918457 0.52017593 2.7096558 1.4915237 3.9534912 2.9140472c1.2437744 1.4118996 3.553711 4.8408127 6.9297485 10.286736l9.506165 15.239014l15.725159 0l-7.951416 -13.662567c-3.1390991 -5.445915 -5.6365967 -9.235767 -7.4924316 -11.369549c-1.8459473 -2.1337814 -4.1903687 -4.0923996 -7.033386 -5.8758583c5.715576 -0.89172745 10.009644 -3.0467415 12.882202 -6.4650383c2.8726196 -3.4289093 4.308899 -7.7707825 4.308899 -13.025616c0 -4.140171 -0.94763184 -7.818554 -2.8429565 -11.035149c-1.8953247 -3.2165947 -4.4224243 -5.4512253 -7.581238 -6.7038918c-3.1489868 -1.2632847 -8.203186 -1.8949251 -15.162537 -1.8949251z" fill-rule="evenodd"/><path stroke="#000000" stroke-width="4.0" stroke-linejoin="round" stroke-linecap="butt" d="m730.4279 13.751618c-5.004822 0 -9.279175 0.8121109 -12.822998 2.4363317c-3.5339966 1.6242218 -6.2437134 3.9915485 -8.12915 7.101986c-1.8755493 3.099823 -2.8133545 6.4331894 -2.8133545 10.000107c0 5.541462 1.9989624 10.238964 5.996887 14.092506c2.8430176 2.738884 7.788574 5.047825 14.836792 6.9268265c5.4786377 1.4649811 8.987915 2.4841003 10.527893 3.0573578c2.2506714 0.85988235 3.8251343 1.8736877 4.7234497 3.0414314c0.9082031 1.1571236 1.3622437 2.5637207 1.3622437 4.2197876c0 2.5796509 -1.0759888 4.8355103 -3.2279663 6.7675934c-2.1420898 1.921463 -5.3305664 2.8821945 -9.565369 2.8821945c-3.9979248 0 -7.1765137 -1.0828171 -9.535828 -3.2484436c-2.3493652 -2.1656265 -3.9090576 -5.5573807 -4.679016 -10.175266l-12.793396 1.3375931c0.8588257 7.8344765 3.4945068 13.800571 7.9069824 17.898281c4.4125366 4.0870895 10.7352295 6.130638 18.967957 6.130638c5.656372 0 10.379822 -0.84926605 14.170471 -2.5477982c3.7905884 -1.7091522 6.722412 -4.3153305 8.79541 -7.8185577c2.072998 -3.5032196 3.109497 -7.261223 3.109497 -11.274002c0 -4.4268 -0.86865234 -8.142342 -2.606018 -11.146614c-1.7275391 -3.0148926 -4.1262817 -5.3875313 -7.196289 -7.1179123c-3.0601196 -1.7409935 -7.788574 -3.423603 -14.185242 -5.047825c-6.3966675 -1.624218 -10.424255 -3.1847458 -12.082642 -4.681576c-1.3030396 -1.1783562 -1.9545288 -2.5955696 -1.9545288 -4.2516403c0 -1.8153038 0.69592285 -3.2643642 2.0878296 -4.3471794c2.1618042 -1.6879158 5.152832 -2.5318737 8.9730835 -2.5318737c3.7017822 0 6.475708 0.7908802 8.321655 2.3726368c1.855835 1.5711441 3.0650635 4.1560955 3.6277466 7.75486l13.148743 -0.6210251c-0.20733643 -6.4331894 -2.3790283 -11.576557 -6.5151367 -15.430101c-4.1262817 -3.8535442 -10.276184 -5.7803164 -18.449707 -5.7803164z" fill-rule="evenodd"/><path stroke="#000000" stroke-width="4.0" stroke-linejoin="round" stroke-linecap="butt" d="m768.3638 14.945899l0 70.03259l13.148743 0l0 -30.621346l25.764465 0l0 30.621346l13.148743 0l0 -70.03259l-13.148743 0l0 27.563988l-25.764465 0l0 -27.563988z" fill-rule="evenodd"/><path stroke="#000000" stroke-width="4.0" stroke-linejoin="round" stroke-linecap="butt" d="m862.98145 25.837734c5.4193726 0 9.762817 1.9745426 13.030273 5.9236298c3.2772827 3.9490852 4.9159546 9.936413 4.9159546 17.961975c0 8.121105 -1.6830444 14.214584 -5.0492554 18.280453c-3.3562622 4.055237 -7.6552734 6.082863 -12.896973 6.082863c-5.2417603 0 -9.56543 -2.0435486 -12.971069 -6.130638c-3.4056396 -4.0977097 -5.1084595 -10.111572 -5.1084595 -18.041592c0 -8.057411 1.6583862 -14.08189 4.9751587 -18.073442c3.3168335 -4.002163 7.6849365 -6.003248 13.10437 -6.003248zm-0.13330078 -12.086116c-5.3009644 0 -9.97998 0.9235773 -14.03717 2.77073c-3.050232 1.369442 -5.8587036 3.4713745 -8.425232 6.3057995c-2.5567017 2.834425 -4.5754395 6.035097 -6.0561523 9.602013c-1.9841309 4.8408165 -2.9761963 10.82814 -2.9761963 17.961975c0 11.146614 2.857727 19.89936 8.573303 26.25824c5.715576 6.348259 13.415283 9.522392 23.099121 9.522392c9.56543 0 17.205933 -3.1900558 22.921448 -9.57016c5.715576 -6.390732 8.573364 -15.2390175 8.573364 -26.544868c0 -11.401398 -2.8824463 -20.302765 -8.6474 -26.704107c-5.755005 -6.4013424 -13.430054 -9.602014 -23.025085 -9.602014z" fill-rule="evenodd"/><path stroke="#000000" stroke-width="4.0" stroke-linejoin="round" stroke-linecap="butt" d="m924.28296 26.79316c4.7382812 0 7.892212 0.15923691 9.461792 0.47771072c2.1322021 0.41401672 3.894287 1.4490604 5.286133 3.1051292c1.3918457 1.6560669 2.0878296 3.7580032 2.0878296 6.3057976c0 2.0700874 -0.49853516 3.885395 -1.4955444 5.445919c-0.9871216 1.5605278 -2.354309 2.707035 -4.1015625 3.4395294c-1.7472534 0.73249054 -5.212097 1.0987358 -10.394653 1.0987358l-7.196228 0l0 -19.872822zm-19.500977 -11.84726l0 70.03259l13.148743 0l0 -26.41748l8.573303 0c5.9525146 0 10.498291 -0.33439636 13.63739 -1.0031967c2.3099365 -0.5414047 4.5803833 -1.6454506 6.8112793 -3.3121338c2.2408447 -1.6772995 4.086792 -3.9809341 5.537903 -6.910904c1.4510498 -2.929966 2.1766357 -6.544655 2.1766357 -10.844063c0 -5.573309 -1.258606 -10.11688 -3.7758179 -13.63072c-2.517212 -3.524454 -5.6415405 -5.8121624 -9.372925 -6.8631296c-2.4284058 -0.7006445 -7.640503 -1.0509663 -15.636353 -1.0509663z" fill-rule="evenodd"/></g></svg>