<svg version="1.1" viewBox="0.0 0.0 331.9685039370079 100.0" fill="none" stroke="none" stroke-linecap="square" stroke-miterlimit="10" xmlns:xlink="http://www.w3.org/1999/xlink" xmlns="http://www.w3.org/2000/svg"><clipPath id="p.0"><path d="m0 0l331.9685 0l0 100.0l-331.9685 0l0 -100.0z" clip-rule="nonzero"/></clipPath><g clip-path="url(#p.0)"><path fill="#000000" fill-opacity="0.0" d="m0 0l331.9685 0l0 100.0l-331.9685 0z" fill-rule="evenodd"/><path fill="#ffffff" d="m45.25589 -84.69977l0 70.03259l49.529884 0l0 -11.799489l-36.38114 0l0 -19.06071l32.69416 0l0 -11.799488l-32.69416 0l0 -15.525642l35.137344 0l0 -11.8472595z" fill-rule="evenodd"/><path fill="#ffffff" d="m185.40547 -68.362015l8.973129 25.987534l-17.76857 0l8.795441 -25.987534zm-86.13313 -16.337753l23.276825 70.03259l14.03717 0l23.321243 -70.03259l-13.948334 0l-15.947281 51.83176l-16.480347 -51.83176zm79.336655 0l-25.364624 70.03259l13.9483185 0l5.375 -15.907813l26.030945 0l5.6859436 15.907813l14.303696 0l-26.075378 -70.03259z" fill-rule="evenodd"/><path fill="#ffffff" d="m223.03041 -84.69977l0 11.8472595l2.3543396 13.041538l9.195236 0l2.0433807 -13.041538l0 -11.8472595z" fill-rule="evenodd"/><path fill="#ffffff" d="m269.98386 -85.89405c-5.004822 0 -9.279144 0.8121109 -12.822998 2.4363327c-3.5339508 1.6242218 -6.2436523 3.9915466 -8.129105 7.101982c-1.8755646 3.099823 -2.8133545 6.4331894 -2.8133545 10.000107c0 5.541462 1.9989624 10.238964 5.996887 14.09251c2.8429718 2.7388802 7.788559 5.047825 14.836746 6.9268227c5.4786377 1.4649849 8.987946 2.4841042 10.527893 3.0573578c2.2506714 0.85988235 3.8251648 1.8736916 4.72348 3.0414352c0.9081421 1.1571236 1.3622437 2.5637207 1.3622437 4.2197914c0 2.5796432 -1.0759888 4.8355045 -3.2279663 6.7675858c-2.1420898 1.921463 -5.3305664 2.8821964 -9.565399 2.8821964c-3.9979248 0 -7.1765137 -1.0828133 -9.535797 -3.2484417c-2.3493958 -2.1656284 -3.9090881 -5.5573845 -4.6790466 -10.175266l-12.793381 1.3375931c0.8588104 7.8344784 3.4944916 13.800568 7.907013 17.89828c4.4125214 4.0870895 10.735184 6.130638 18.967941 6.130638c5.6563416 0 10.379822 -0.84926796 14.170441 -2.5477972c3.790619 -1.7091513 6.7224426 -4.3153334 8.795441 -7.818555c2.072998 -3.5032215 3.109497 -7.261223 3.109497 -11.274004c0 -4.4268 -0.86868286 -8.142342 -2.6060486 -11.146618c-1.7275085 -3.0148926 -4.1262817 -5.3875275 -7.196289 -7.1179085c-3.0601501 -1.7409935 -7.7885437 -3.423603 -14.185242 -5.047825c-6.3966675 -1.6242218 -10.424225 -3.1847458 -12.082611 -4.6815796c-1.3030396 -1.1783562 -1.9545593 -2.5955696 -1.9545593 -4.2516365c0 -1.8153076 0.69595337 -3.2643661 2.0878296 -4.347183c2.1618347 -1.687912 5.1528625 -2.531868 8.973114 -2.531868c3.7017822 0 6.475647 0.7908783 8.321625 2.372635c1.8558044 1.5711441 3.0650635 4.1560974 3.6277466 7.75486l13.148743 -0.6210251c-0.20730591 -6.4331894 -2.3790283 -11.576561 -6.5151367 -15.4300995c-4.1262817 -3.8535461 -10.276154 -5.780319 -18.449707 -5.780319z" fill-rule="evenodd"/><path fill="#ffffff" d="m353.8959 -73.043594c6.189392 0 9.935608 0.07962036 11.238647 0.23885345c2.1914368 0.28662872 3.8399658 1.1093597 4.9455566 2.4681778c1.1154785 1.3482132 1.6732178 3.105133 1.6732178 5.2707596c0 2.2611694 -0.6465759 4.0870934 -1.9397278 5.477764c-1.2832947 1.3800583 -3.0502625 2.2134018 -5.3009644 2.5000267c-1.2438049 0.15923691 -4.4273376 0.23885727 -9.550598 0.23885727l-8.617767 0l0 -16.194439zm3.065094 27.850613c5.982086 0 9.866486 0.33440018 11.653229 1.0031967c1.7965698 0.66879654 3.1687012 1.7356873 4.1163635 3.2006721c0.94766235 1.4649811 1.4215088 3.2484398 1.4215088 5.3503723c0 2.4841042 -0.6169739 4.469261 -1.8509216 5.9554787c-1.22406 1.4755974 -2.8133545 2.4044838 -4.7678833 2.7866535c-1.273407 0.28662872 -4.2792664 0.42994118 -9.017548 0.42994118l-12.171478 0l0 -18.726315zm-23.765472 -39.506786l0 70.03259l22.16629 0c8.380859 -0.063694954 13.666992 -0.22293186 15.858459 -0.47771168c3.4944763 -0.41401768 6.4312134 -1.5180664 8.810242 -3.3121376c2.3888855 -1.8046932 4.2693787 -4.209177 5.64151 -7.2134533c1.382019 -3.0148964 2.072998 -6.1147137 2.072998 -9.299459c0 -4.044632 -1.0661011 -7.563778 -3.1983337 -10.557438c-2.1322327 -2.9936638 -5.182495 -5.111519 -9.150818 -6.353573c2.8133545 -1.369442 5.0393677 -3.423603 6.6780396 -6.162483c1.648529 -2.738884 2.4727783 -5.7484703 2.4727783 -9.028763c0 -3.025505 -0.6663208 -5.7537766 -1.9989624 -8.184799c-1.3326416 -2.4416428 -3.0009155 -4.394951 -5.004822 -5.859932c-1.9940186 -1.4649887 -4.2595215 -2.4257202 -6.7964783 -2.8821945c-2.527069 -0.46710205 -6.3670654 -0.70064545 -11.519928 -0.70064545z" fill-rule="evenodd"/><path fill="#ffffff" d="m424.3927 -68.362015l8.973145 25.987534l-17.768585 0l8.795441 -25.987534zm-6.7964783 -16.337753l-25.364624 70.03259l13.948334 0l5.375 -15.907813l26.030945 0l5.6859436 15.907813l14.30368 0l-26.075348 -70.03259z" fill-rule="evenodd"/><path fill="#ffffff" d="m488.00418 -72.85251c5.3305664 0 8.528931 0.07961273 9.595032 0.23885345c2.1322327 0.38217163 3.7807617 1.3004379 4.945587 2.7548065c1.1746826 1.4437561 1.7620544 3.3439865 1.7620544 5.700699c0 2.1019325 -0.44421387 3.8535423 -1.3326416 5.254833c-0.88842773 1.4012871 -2.1174316 2.3885574 -3.6869812 2.9618149c-1.5695496 0.57325363 -5.5082703 0.85988235 -11.816101 0.85988235l-9.728302 0l0 -17.77089zm-23.410095 -11.8472595l0 70.03259l13.148743 0l0 -29.235977l2.6652832 0c3.0206604 0 5.2269287 0.26539612 6.618805 0.79618454c1.3918762 0.5201721 2.7097168 1.4915199 3.9534912 2.9140434c1.2438049 1.4119034 3.5537415 4.8408165 6.9297485 10.286734l9.506195 15.239017l15.725189 0l-7.951416 -13.662566c-3.1391602 -5.445917 -5.636627 -9.235765 -7.4924316 -11.369547c-1.8459778 -2.1337814 -4.1904297 -4.0923996 -7.0334167 -5.8758583c5.715576 -0.89173126 10.009644 -3.0467415 12.882233 -6.4650383c2.8725586 -3.4289093 4.308899 -7.7707825 4.308899 -13.025616c0 -4.140175 -0.9476929 -7.8185577 -2.8430176 -11.035149c-1.8953247 -3.2165985 -4.422394 -5.4512253 -7.581238 -6.7038956c-3.1489868 -1.2632828 -8.2031555 -1.8949203 -15.162506 -1.8949203z" fill-rule="evenodd"/><path fill="#ffffff" d="m550.9938 -73.043594c6.189392 0 9.935547 0.07962036 11.238586 0.23885345c2.1914673 0.28662872 3.8400269 1.1093597 4.9456177 2.4681778c1.1154785 1.3482132 1.6732178 3.105133 1.6732178 5.2707596c0 2.2611694 -0.64660645 4.0870934 -1.9397583 5.477764c-1.2832642 1.3800583 -3.050293 2.2134018 -5.3009644 2.5000267c-1.2437744 0.15923691 -4.427307 0.23885727 -9.550598 0.23885727l-8.617737 0l0 -16.194439zm3.0650635 27.850613c5.9820557 0 9.866516 0.33440018 11.653198 1.0031967c1.7966309 0.66879654 3.1687622 1.7356873 4.116394 3.2006721c0.9476929 1.4649811 1.4215088 3.2484398 1.4215088 5.3503723c0 2.4841042 -0.6170044 4.469261 -1.8508911 5.9554787c-1.22406 1.4755974 -2.8133545 2.4044838 -4.7678833 2.7866535c-1.2734375 0.28662872 -4.279297 0.42994118 -9.017578 0.42994118l-12.171448 0l0 -18.726315zm-23.765442 -39.506786l0 70.03259l22.16626 0c8.380859 -0.063694954 13.666992 -0.22293186 15.858459 -0.47771168c3.4945068 -0.41401768 6.4312134 -1.5180664 8.810242 -3.3121376c2.388916 -1.8046932 4.269409 -4.209177 5.6415405 -7.2134533c1.381958 -3.0148964 2.072998 -6.1147137 2.072998 -9.299459c0 -4.044632 -1.0661011 -7.563778 -3.1983643 -10.557438c-2.1322021 -2.9936638 -5.182495 -5.111519 -9.150818 -6.353573c2.8133545 -1.369442 5.0393677 -3.423603 6.6780396 -6.162483c1.6484985 -2.738884 2.4727783 -5.7484703 2.4727783 -9.028763c0 -3.025505 -0.6663208 -5.7537766 -1.9989624 -8.184799c-1.3326416 -2.4416428 -3.0009155 -4.394951 -5.004822 -5.859932c-1.9940186 -1.4649887 -4.2595215 -2.4257202 -6.7964478 -2.8821945c-2.5270996 -0.46710205 -6.3670654 -0.70064545 -11.5199585 -0.70064545z" fill-rule="evenodd"/><path fill="#ffffff" d="m595.94824 -84.69977l0 70.03259l49.529907 0l0 -11.799489l-36.381165 0l0 -19.06071l32.694153 0l0 -11.799488l-32.694153 0l0 -15.525642l35.13733 0l0 -11.8472595z" fill-rule="evenodd"/><path fill="#ffffff" d="m680.0824 -72.85251c5.3305664 0 8.528931 0.07961273 9.595032 0.23885345c2.1322021 0.38217163 3.7807617 1.3004379 4.9456177 2.7548065c1.1746826 1.4437561 1.7620239 3.3439865 1.7620239 5.700699c0 2.1019325 -0.44421387 3.8535423 -1.3326416 5.254833c-0.88842773 1.4012871 -2.1174316 2.3885574 -3.6870117 2.9618149c-1.569519 0.57325363 -5.5082397 0.85988235 -11.81604 0.85988235l-9.7283325 0l0 -17.77089zm-23.410095 -11.8472595l0 70.03259l13.148743 0l0 -29.235977l2.6652832 0c3.020691 0 5.2269287 0.26539612 6.6188354 0.79618454c1.3918457 0.5201721 2.7096558 1.4915199 3.9534912 2.9140434c1.2437744 1.4119034 3.553711 4.8408165 6.9297485 10.286734l9.506165 15.239017l15.725159 0l-7.951416 -13.662566c-3.1390991 -5.445917 -5.6365967 -9.235765 -7.4924316 -11.369547c-1.8459473 -2.1337814 -4.1903687 -4.0923996 -7.033386 -5.8758583c5.715576 -0.89173126 10.009644 -3.0467415 12.882202 -6.4650383c2.8726196 -3.4289093 4.308899 -7.7707825 4.308899 -13.025616c0 -4.140175 -0.94763184 -7.8185577 -2.8429565 -11.035149c-1.8953247 -3.2165985 -4.4224243 -5.4512253 -7.581238 -6.7038956c-3.1489868 -1.2632828 -8.203186 -1.8949203 -15.162537 -1.8949203z" fill-rule="evenodd"/><path fill="#ffffff" d="m770.3912 -85.89405c-5.004822 0 -9.279175 0.8121109 -12.822998 2.4363327c-3.5339966 1.6242218 -6.2437134 3.9915466 -8.12915 7.101982c-1.8755493 3.099823 -2.8133545 6.4331894 -2.8133545 10.000107c0 5.541462 1.9989624 10.238964 5.996887 14.09251c2.8430176 2.7388802 7.788574 5.047825 14.836792 6.9268227c5.4786377 1.4649849 8.987915 2.4841042 10.527893 3.0573578c2.2506714 0.85988235 3.8251343 1.8736916 4.7234497 3.0414352c0.9082031 1.1571236 1.3622437 2.5637207 1.3622437 4.2197914c0 2.5796432 -1.0759888 4.8355045 -3.2279663 6.7675858c-2.1420898 1.921463 -5.3305664 2.8821964 -9.565369 2.8821964c-3.9979248 0 -7.1765137 -1.0828133 -9.535828 -3.2484417c-2.3493652 -2.1656284 -3.9090576 -5.5573845 -4.679077 -10.175266l-12.793335 1.3375931c0.8588257 7.8344784 3.4945068 13.800568 7.9069824 17.89828c4.4125366 4.0870895 10.7352295 6.130638 18.967957 6.130638c5.656372 0 10.379822 -0.84926796 14.170471 -2.5477972c3.7905884 -1.7091513 6.722412 -4.3153334 8.79541 -7.818555c2.072998 -3.5032215 3.109497 -7.261223 3.109497 -11.274004c0 -4.4268 -0.86865234 -8.142342 -2.606018 -11.146618c-1.7275391 -3.0148926 -4.1262817 -5.3875275 -7.196289 -7.1179085c-3.0601196 -1.7409935 -7.788574 -3.423603 -14.185242 -5.047825c-6.3966675 -1.6242218 -10.424255 -3.1847458 -12.082642 -4.6815796c-1.3030396 -1.1783562 -1.9545288 -2.5955696 -1.9545288 -4.2516365c0 -1.8153076 0.69592285 -3.2643661 2.0878296 -4.347183c2.1618042 -1.687912 5.152832 -2.531868 8.9730835 -2.531868c3.7017822 0 6.475708 0.7908783 8.321655 2.372635c1.855835 1.5711441 3.0650635 4.1560974 3.6277466 7.75486l13.148743 -0.6210251c-0.20733643 -6.4331894 -2.3790283 -11.576561 -6.5151978 -15.4300995c-4.1262207 -3.8535461 -10.276123 -5.780319 -18.449646 -5.780319z" fill-rule="evenodd"/><path fill="#ffffff" d="m808.327 -84.69977l0 70.03259l13.148743 0l0 -30.621346l25.764465 0l0 30.621346l13.148743 0l0 -70.03259l-13.148743 0l0 27.563984l-25.764465 0l0 -27.563984z" fill-rule="evenodd"/><path fill="#ffffff" d="m902.94464 -73.80794c5.4194336 0 9.762878 1.9745483 13.030334 5.9236298c3.2772827 3.949089 4.9159546 9.936413 4.9159546 17.961979c0 8.121105 -1.6830444 14.214584 -5.0492554 18.280447c-3.3562622 4.0552425 -7.6552734 6.0828686 -12.897034 6.0828686c-5.241699 0 -9.565369 -2.0435486 -12.971008 -6.130638c-3.4056396 -4.0977097 -5.1084595 -10.111572 -5.1084595 -18.041595c0 -8.057407 1.6583862 -14.081886 4.9751587 -18.07344c3.3168335 -4.0021667 7.6849365 -6.00325 13.104309 -6.00325zm-0.13323975 -12.086113c-5.3009644 0 -9.97998 0.92357635 -14.03717 2.770729c-3.050293 1.3694458 -5.8587036 3.4713745 -8.425232 6.3058014c-2.5567017 2.8344269 -4.5754395 6.035095 -6.0561523 9.602013c-1.9841309 4.8408165 -2.9762573 10.82814 -2.9762573 17.961975c0 11.146614 2.857788 19.899359 8.573364 26.25824c5.715576 6.348261 13.415283 9.522395 23.099121 9.522395c9.56543 0 17.205933 -3.1900587 22.921448 -9.570167c5.715576 -6.390728 8.573364 -15.239014 8.573364 -26.544868c0 -11.401394 -2.8824463 -20.302761 -8.6474 -26.704105c-5.755005 -6.4013443 -13.430054 -9.602013 -23.025085 -9.602013z" fill-rule="evenodd"/><path fill="#ffffff" d="m964.2462 -72.85251c4.7382812 0 7.892212 0.1592331 9.461792 0.4777069c2.1322021 0.41401672 3.894287 1.4490662 5.286133 3.105133c1.3918457 1.6560669 2.0878296 3.7580032 2.0878296 6.3057976c0 2.0700874 -0.49853516 3.8853912 -1.4955444 5.445919c-0.9871216 1.560524 -2.354309 2.707035 -4.1015625 3.4395256c-1.7472534 0.73249435 -5.212097 1.0987396 -10.394653 1.0987396l-7.196228 0l0 -19.872822zm-19.500977 -11.8472595l0 70.03259l13.148743 0l0 -26.417477l8.573303 0c5.9525146 0 10.498291 -0.33440018 13.63739 -1.0031967c2.3099365 -0.54140854 4.5803833 -1.6454506 6.8112793 -3.3121376c2.2408447 -1.6772995 4.086792 -3.9809341 5.537903 -6.9109c1.4510498 -2.9299698 2.1766357 -6.544655 2.1766357 -10.844067c0 -5.573307 -1.258606 -10.1168785 -3.7758179 -13.630718c-2.517212 -3.5244522 -5.6415405 -5.8121643 -9.372925 -6.8631287c-2.4284058 -0.70064545 -7.640503 -1.0509644 -15.636353 -1.0509644z" fill-rule="evenodd"/><path stroke="#000000" stroke-width="4.0" stroke-linejoin="round" stroke-linecap="butt" d="m45.25589 -84.69977l0 70.03259l49.529884 0l0 -11.799489l-36.38114 0l0 -19.06071l32.69416 0l0 -11.799488l-32.69416 0l0 -15.525642l35.137344 0l0 -11.8472595z" fill-rule="evenodd"/><path stroke="#000000" stroke-width="4.0" stroke-linejoin="round" stroke-linecap="butt" d="m185.40547 -68.362015l8.973129 25.987534l-17.76857 0l8.795441 -25.987534zm-86.13313 -16.337753l23.276825 70.03259l14.03717 0l23.321243 -70.03259l-13.948334 0l-15.947281 51.83176l-16.480347 -51.83176zm79.336655 0l-25.364624 70.03259l13.9483185 0l5.375 -15.907813l26.030945 0l5.6859436 15.907813l14.303696 0l-26.075378 -70.03259z" fill-rule="evenodd"/><path stroke="#000000" stroke-width="4.0" stroke-linejoin="round" stroke-linecap="butt" d="m223.03041 -84.69977l0 11.8472595l2.3543396 13.041538l9.195236 0l2.0433807 -13.041538l0 -11.8472595z" fill-rule="evenodd"/><path stroke="#000000" stroke-width="4.0" stroke-linejoin="round" stroke-linecap="butt" d="m269.98386 -85.89405c-5.004822 0 -9.279144 0.8121109 -12.822998 2.4363327c-3.5339508 1.6242218 -6.2436523 3.9915466 -8.129105 7.101982c-1.8755646 3.099823 -2.8133545 6.4331894 -2.8133545 10.000107c0 5.541462 1.9989624 10.238964 5.996887 14.09251c2.8429718 2.7388802 7.788559 5.047825 14.836746 6.9268227c5.4786377 1.4649849 8.987946 2.4841042 10.527893 3.0573578c2.2506714 0.85988235 3.8251648 1.8736916 4.72348 3.0414352c0.9081421 1.1571236 1.3622437 2.5637207 1.3622437 4.2197914c0 2.5796432 -1.0759888 4.8355045 -3.2279663 6.7675858c-2.1420898 1.921463 -5.3305664 2.8821964 -9.565399 2.8821964c-3.9979248 0 -7.1765137 -1.0828133 -9.535797 -3.2484417c-2.3493958 -2.1656284 -3.9090881 -5.5573845 -4.6790466 -10.175266l-12.793381 1.3375931c0.8588104 7.8344784 3.4944916 13.800568 7.907013 17.89828c4.4125214 4.0870895 10.735184 6.130638 18.967941 6.130638c5.6563416 0 10.379822 -0.84926796 14.170441 -2.5477972c3.790619 -1.7091513 6.7224426 -4.3153334 8.795441 -7.818555c2.072998 -3.5032215 3.109497 -7.261223 3.109497 -11.274004c0 -4.4268 -0.86868286 -8.142342 -2.6060486 -11.146618c-1.7275085 -3.0148926 -4.1262817 -5.3875275 -7.196289 -7.1179085c-3.0601501 -1.7409935 -7.7885437 -3.423603 -14.185242 -5.047825c-6.3966675 -1.6242218 -10.424225 -3.1847458 -12.082611 -4.6815796c-1.3030396 -1.1783562 -1.9545593 -2.5955696 -1.9545593 -4.2516365c0 -1.8153076 0.69595337 -3.2643661 2.0878296 -4.347183c2.1618347 -1.687912 5.1528625 -2.531868 8.973114 -2.531868c3.7017822 0 6.475647 0.7908783 8.321625 2.372635c1.8558044 1.5711441 3.0650635 4.1560974 3.6277466 7.75486l13.148743 -0.6210251c-0.20730591 -6.4331894 -2.3790283 -11.576561 -6.5151367 -15.4300995c-4.1262817 -3.8535461 -10.276154 -5.780319 -18.449707 -5.780319z" fill-rule="evenodd"/><path stroke="#000000" stroke-width="4.0" stroke-linejoin="round" stroke-linecap="butt" d="m353.8959 -73.043594c6.189392 0 9.935608 0.07962036 11.238647 0.23885345c2.1914368 0.28662872 3.8399658 1.1093597 4.9455566 2.4681778c1.1154785 1.3482132 1.6732178 3.105133 1.6732178 5.2707596c0 2.2611694 -0.6465759 4.0870934 -1.9397278 5.477764c-1.2832947 1.3800583 -3.0502625 2.2134018 -5.3009644 2.5000267c-1.2438049 0.15923691 -4.4273376 0.23885727 -9.550598 0.23885727l-8.617767 0l0 -16.194439zm3.065094 27.850613c5.982086 0 9.866486 0.33440018 11.653229 1.0031967c1.7965698 0.66879654 3.1687012 1.7356873 4.1163635 3.2006721c0.94766235 1.4649811 1.4215088 3.2484398 1.4215088 5.3503723c0 2.4841042 -0.6169739 4.469261 -1.8509216 5.9554787c-1.22406 1.4755974 -2.8133545 2.4044838 -4.7678833 2.7866535c-1.273407 0.28662872 -4.2792664 0.42994118 -9.017548 0.42994118l-12.171478 0l0 -18.726315zm-23.765472 -39.506786l0 70.03259l22.16629 0c8.380859 -0.063694954 13.666992 -0.22293186 15.858459 -0.47771168c3.4944763 -0.41401768 6.4312134 -1.5180664 8.810242 -3.3121376c2.3888855 -1.8046932 4.2693787 -4.209177 5.64151 -7.2134533c1.382019 -3.0148964 2.072998 -6.1147137 2.072998 -9.299459c0 -4.044632 -1.0661011 -7.563778 -3.1983337 -10.557438c-2.1322327 -2.9936638 -5.182495 -5.111519 -9.150818 -6.353573c2.8133545 -1.369442 5.0393677 -3.423603 6.6780396 -6.162483c1.648529 -2.738884 2.4727783 -5.7484703 2.4727783 -9.028763c0 -3.025505 -0.6663208 -5.7537766 -1.9989624 -8.184799c-1.3326416 -2.4416428 -3.0009155 -4.394951 -5.004822 -5.859932c-1.9940186 -1.4649887 -4.2595215 -2.4257202 -6.7964783 -2.8821945c-2.527069 -0.46710205 -6.3670654 -0.70064545 -11.519928 -0.70064545z" fill-rule="evenodd"/><path stroke="#000000" stroke-width="4.0" stroke-linejoin="round" stroke-linecap="butt" d="m424.3927 -68.362015l8.973145 25.987534l-17.768585 0l8.795441 -25.987534zm-6.7964783 -16.337753l-25.364624 70.03259l13.948334 0l5.375 -15.907813l26.030945 0l5.6859436 15.907813l14.30368 0l-26.075348 -70.03259z" fill-rule="evenodd"/><path stroke="#000000" stroke-width="4.0" stroke-linejoin="round" stroke-linecap="butt" d="m488.00418 -72.85251c5.3305664 0 8.528931 0.07961273 9.595032 0.23885345c2.1322327 0.38217163 3.7807617 1.3004379 4.945587 2.7548065c1.1746826 1.4437561 1.7620544 3.3439865 1.7620544 5.700699c0 2.1019325 -0.44421387 3.8535423 -1.3326416 5.254833c-0.88842773 1.4012871 -2.1174316 2.3885574 -3.6869812 2.9618149c-1.5695496 0.57325363 -5.5082703 0.85988235 -11.816101 0.85988235l-9.728302 0l0 -17.77089zm-23.410095 -11.8472595l0 70.03259l13.148743 0l0 -29.235977l2.6652832 0c3.0206604 0 5.2269287 0.26539612 6.618805 0.79618454c1.3918762 0.5201721 2.7097168 1.4915199 3.9534912 2.9140434c1.2438049 1.4119034 3.5537415 4.8408165 6.9297485 10.286734l9.506195 15.239017l15.725189 0l-7.951416 -13.662566c-3.1391602 -5.445917 -5.636627 -9.235765 -7.4924316 -11.369547c-1.8459778 -2.1337814 -4.1904297 -4.0923996 -7.0334167 -5.8758583c5.715576 -0.89173126 10.009644 -3.0467415 12.882233 -6.4650383c2.8725586 -3.4289093 4.308899 -7.7707825 4.308899 -13.025616c0 -4.140175 -0.9476929 -7.8185577 -2.8430176 -11.035149c-1.8953247 -3.2165985 -4.422394 -5.4512253 -7.581238 -6.7038956c-3.1489868 -1.2632828 -8.2031555 -1.8949203 -15.162506 -1.8949203z" fill-rule="evenodd"/><path stroke="#000000" stroke-width="4.0" stroke-linejoin="round" stroke-linecap="butt" d="m550.9938 -73.043594c6.189392 0 9.935547 0.07962036 11.238586 0.23885345c2.1914673 0.28662872 3.8400269 1.1093597 4.9456177 2.4681778c1.1154785 1.3482132 1.6732178 3.105133 1.6732178 5.2707596c0 2.2611694 -0.64660645 4.0870934 -1.9397583 5.477764c-1.2832642 1.3800583 -3.050293 2.2134018 -5.3009644 2.5000267c-1.2437744 0.15923691 -4.427307 0.23885727 -9.550598 0.23885727l-8.617737 0l0 -16.194439zm3.0650635 27.850613c5.9820557 0 9.866516 0.33440018 11.653198 1.0031967c1.7966309 0.66879654 3.1687622 1.7356873 4.116394 3.2006721c0.9476929 1.4649811 1.4215088 3.2484398 1.4215088 5.3503723c0 2.4841042 -0.6170044 4.469261 -1.8508911 5.9554787c-1.22406 1.4755974 -2.8133545 2.4044838 -4.7678833 2.7866535c-1.2734375 0.28662872 -4.279297 0.42994118 -9.017578 0.42994118l-12.171448 0l0 -18.726315zm-23.765442 -39.506786l0 70.03259l22.16626 0c8.380859 -0.063694954 13.666992 -0.22293186 15.858459 -0.47771168c3.4945068 -0.41401768 6.4312134 -1.5180664 8.810242 -3.3121376c2.388916 -1.8046932 4.269409 -4.209177 5.6415405 -7.2134533c1.381958 -3.0148964 2.072998 -6.1147137 2.072998 -9.299459c0 -4.044632 -1.0661011 -7.563778 -3.1983643 -10.557438c-2.1322021 -2.9936638 -5.182495 -5.111519 -9.150818 -6.353573c2.8133545 -1.369442 5.0393677 -3.423603 6.6780396 -6.162483c1.6484985 -2.738884 2.4727783 -5.7484703 2.4727783 -9.028763c0 -3.025505 -0.6663208 -5.7537766 -1.9989624 -8.184799c-1.3326416 -2.4416428 -3.0009155 -4.394951 -5.004822 -5.859932c-1.9940186 -1.4649887 -4.2595215 -2.4257202 -6.7964478 -2.8821945c-2.5270996 -0.46710205 -6.3670654 -0.70064545 -11.5199585 -0.70064545z" fill-rule="evenodd"/><path stroke="#000000" stroke-width="4.0" stroke-linejoin="round" stroke-linecap="butt" d="m595.94824 -84.69977l0 70.03259l49.529907 0l0 -11.799489l-36.381165 0l0 -19.06071l32.694153 0l0 -11.799488l-32.694153 0l0 -15.525642l35.13733 0l0 -11.8472595z" fill-rule="evenodd"/><path stroke="#000000" stroke-width="4.0" stroke-linejoin="round" stroke-linecap="butt" d="m680.0824 -72.85251c5.3305664 0 8.528931 0.07961273 9.595032 0.23885345c2.1322021 0.38217163 3.7807617 1.3004379 4.9456177 2.7548065c1.1746826 1.4437561 1.7620239 3.3439865 1.7620239 5.700699c0 2.1019325 -0.44421387 3.8535423 -1.3326416 5.254833c-0.88842773 1.4012871 -2.1174316 2.3885574 -3.6870117 2.9618149c-1.569519 0.57325363 -5.5082397 0.85988235 -11.81604 0.85988235l-9.7283325 0l0 -17.77089zm-23.410095 -11.8472595l0 70.03259l13.148743 0l0 -29.235977l2.6652832 0c3.020691 0 5.2269287 0.26539612 6.6188354 0.79618454c1.3918457 0.5201721 2.7096558 1.4915199 3.9534912 2.9140434c1.2437744 1.4119034 3.553711 4.8408165 6.9297485 10.286734l9.506165 15.239017l15.725159 0l-7.951416 -13.662566c-3.1390991 -5.445917 -5.6365967 -9.235765 -7.4924316 -11.369547c-1.8459473 -2.1337814 -4.1903687 -4.0923996 -7.033386 -5.8758583c5.715576 -0.89173126 10.009644 -3.0467415 12.882202 -6.4650383c2.8726196 -3.4289093 4.308899 -7.7707825 4.308899 -13.025616c0 -4.140175 -0.94763184 -7.8185577 -2.8429565 -11.035149c-1.8953247 -3.2165985 -4.4224243 -5.4512253 -7.581238 -6.7038956c-3.1489868 -1.2632828 -8.203186 -1.8949203 -15.162537 -1.8949203z" fill-rule="evenodd"/><path stroke="#000000" stroke-width="4.0" stroke-linejoin="round" stroke-linecap="butt" d="m770.3912 -85.89405c-5.004822 0 -9.279175 0.8121109 -12.822998 2.4363327c-3.5339966 1.6242218 -6.2437134 3.9915466 -8.12915 7.101982c-1.8755493 3.099823 -2.8133545 6.4331894 -2.8133545 10.000107c0 5.541462 1.9989624 10.238964 5.996887 14.09251c2.8430176 2.7388802 7.788574 5.047825 14.836792 6.9268227c5.4786377 1.4649849 8.987915 2.4841042 10.527893 3.0573578c2.2506714 0.85988235 3.8251343 1.8736916 4.7234497 3.0414352c0.9082031 1.1571236 1.3622437 2.5637207 1.3622437 4.2197914c0 2.5796432 -1.0759888 4.8355045 -3.2279663 6.7675858c-2.1420898 1.921463 -5.3305664 2.8821964 -9.565369 2.8821964c-3.9979248 0 -7.1765137 -1.0828133 -9.535828 -3.2484417c-2.3493652 -2.1656284 -3.9090576 -5.5573845 -4.679077 -10.175266l-12.793335 1.3375931c0.8588257 7.8344784 3.4945068 13.800568 7.9069824 17.89828c4.4125366 4.0870895 10.7352295 6.130638 18.967957 6.130638c5.656372 0 10.379822 -0.84926796 14.170471 -2.5477972c3.7905884 -1.7091513 6.722412 -4.3153334 8.79541 -7.818555c2.072998 -3.5032215 3.109497 -7.261223 3.109497 -11.274004c0 -4.4268 -0.86865234 -8.142342 -2.606018 -11.146618c-1.7275391 -3.0148926 -4.1262817 -5.3875275 -7.196289 -7.1179085c-3.0601196 -1.7409935 -7.788574 -3.423603 -14.185242 -5.047825c-6.3966675 -1.6242218 -10.424255 -3.1847458 -12.082642 -4.6815796c-1.3030396 -1.1783562 -1.9545288 -2.5955696 -1.9545288 -4.2516365c0 -1.8153076 0.69592285 -3.2643661 2.0878296 -4.347183c2.1618042 -1.687912 5.152832 -2.531868 8.9730835 -2.531868c3.7017822 0 6.475708 0.7908783 8.321655 2.372635c1.855835 1.5711441 3.0650635 4.1560974 3.6277466 7.75486l13.148743 -0.6210251c-0.20733643 -6.4331894 -2.3790283 -11.576561 -6.5151978 -15.4300995c-4.1262207 -3.8535461 -10.276123 -5.780319 -18.449646 -5.780319z" fill-rule="evenodd"/><path stroke="#000000" stroke-width="4.0" stroke-linejoin="round" stroke-linecap="butt" d="m808.327 -84.69977l0 70.03259l13.148743 0l0 -30.621346l25.764465 0l0 30.621346l13.148743 0l0 -70.03259l-13.148743 0l0 27.563984l-25.764465 0l0 -27.563984z" fill-rule="evenodd"/><path stroke="#000000" stroke-width="4.0" stroke-linejoin="round" stroke-linecap="butt" d="m902.94464 -73.80794c5.4194336 0 9.762878 1.9745483 13.030334 5.9236298c3.2772827 3.949089 4.9159546 9.936413 4.9159546 17.961979c0 8.121105 -1.6830444 14.214584 -5.0492554 18.280447c-3.3562622 4.0552425 -7.6552734 6.0828686 -12.897034 6.0828686c-5.241699 0 -9.565369 -2.0435486 -12.971008 -6.130638c-3.4056396 -4.0977097 -5.1084595 -10.111572 -5.1084595 -18.041595c0 -8.057407 1.6583862 -14.081886 4.9751587 -18.07344c3.3168335 -4.0021667 7.6849365 -6.00325 13.104309 -6.00325zm-0.13323975 -12.086113c-5.3009644 0 -9.97998 0.92357635 -14.03717 2.770729c-3.050293 1.3694458 -5.8587036 3.4713745 -8.425232 6.3058014c-2.5567017 2.8344269 -4.5754395 6.035095 -6.0561523 9.602013c-1.9841309 4.8408165 -2.9762573 10.82814 -2.9762573 17.961975c0 11.146614 2.857788 19.899359 8.573364 26.25824c5.715576 6.348261 13.415283 9.522395 23.099121 9.522395c9.56543 0 17.205933 -3.1900587 22.921448 -9.570167c5.715576 -6.390728 8.573364 -15.239014 8.573364 -26.544868c0 -11.401394 -2.8824463 -20.302761 -8.6474 -26.704105c-5.755005 -6.4013443 -13.430054 -9.602013 -23.025085 -9.602013z" fill-rule="evenodd"/><path stroke="#000000" stroke-width="4.0" stroke-linejoin="round" stroke-linecap="butt" d="m964.2462 -72.85251c4.7382812 0 7.892212 0.1592331 9.461792 0.4777069c2.1322021 0.41401672 3.894287 1.4490662 5.286133 3.105133c1.3918457 1.6560669 2.0878296 3.7580032 2.0878296 6.3057976c0 2.0700874 -0.49853516 3.8853912 -1.4955444 5.445919c-0.9871216 1.560524 -2.354309 2.707035 -4.1015625 3.4395256c-1.7472534 0.73249435 -5.212097 1.0987396 -10.394653 1.0987396l-7.196228 0l0 -19.872822zm-19.500977 -11.8472595l0 70.03259l13.148743 0l0 -26.417477l8.573303 0c5.9525146 0 10.498291 -0.33440018 13.63739 -1.0031967c2.3099365 -0.54140854 4.5803833 -1.6454506 6.8112793 -3.3121376c2.2408447 -1.6772995 4.086792 -3.9809341 5.537903 -6.9109c1.4510498 -2.9299698 2.1766357 -6.544655 2.1766357 -10.844067c0 -5.573307 -1.258606 -10.1168785 -3.7758179 -13.630718c-2.517212 -3.5244522 -5.6415405 -5.8121643 -9.372925 -6.8631287c-2.4284058 -0.70064545 -7.640503 -1.0509644 -15.636353 -1.0509644z" fill-rule="evenodd"/><path fill="#ff0000" d="m-257.44226 -88.514084l0 70.12728l59.116867 0l0 -8.275593l-48.63362 0l0 -23.870066l43.824295 0l0 -8.2277565l-43.824295 0l0 -21.478271l46.796356 0l0 -8.275597z" fill-rule="evenodd"/><path fill="#ff0000" d="m-91.11528 -81.14737c1.2248535 3.7949753 3.0981445 8.642334 5.6198883 14.542084l8.267715 19.421333l-26.856567 0l8.70002 -20.569397c1.837265 -4.432785 3.2602463 -8.897453 4.268944 -13.39402zm-100.77966 -7.3667145l30.693222 70.12728l10.753433 0l31.017433 -70.12728l-10.699394 0l-21.398788 50.945126c-1.6211243 3.8268661 -3.0441132 7.6537304 -4.2689514 11.480595c-1.1167755 -3.571741 -2.5037384 -7.3986053 -4.1608734 -11.480595l-20.588242 -50.945126zm95.37593 0l-30.423035 70.12728l11.131699 0l8.700012 -21.239096l33.1249 0l9.240387 21.239096l11.942257 0l-32.422413 -70.12728z" fill-rule="evenodd"/><path fill="#ff0000" d="m-48.10154 -88.514084l0 11.719772l2.4857178 13.107006l5.998146 0l2.593792 -13.107006l0 -11.719772z" fill-rule="evenodd"/><path fill="#ff0000" d="m4.0445094 -89.70998c-5.331686 0 -10.177036 0.7972641 -14.536049 2.3917847c-4.3590136 1.5945282 -7.6733046 3.9331665 -9.942874 7.0159225c-2.2695694 3.0721207 -3.4043522 6.378105 -3.4043522 9.9179535c0 3.2209473 0.92464066 6.1336136 2.7739162 8.738007c1.86129 2.5937653 4.683239 4.7676353 8.465853 6.521614c2.9180174 1.3712921 8.015541 2.832943 15.292572 4.3849487c7.2770305 1.541378 11.978281 2.6788025 14.10375 3.4122849c3.314291 1.116169 5.6919346 2.4980888 7.1329308 4.145771c1.4409962 1.637043 2.1614952 3.5557938 2.1614952 5.756241c0 2.1685562 -0.7505169 4.172344 -2.2515564 6.011366c-1.489027 1.8283882 -3.7646027 3.2687798 -6.8267193 4.321167c-3.0621176 1.0523872 -6.592558 1.5785809 -10.591322 1.5785809c-4.503113 0 -8.555915 -0.69096375 -12.158405 -2.0728836c-3.602491 -1.3925552 -6.2623267 -3.2103157 -7.9795165 -5.4532814c-1.7051754 -2.253601 -2.7919292 -5.1343765 -3.260254 -8.642334l-9.888836 0.76537323c0.14410019 4.687908 1.5911026 8.892139 4.3410015 12.612705c2.7619114 3.7099285 6.562539 6.489723 11.401881 8.339375c4.851357 1.8496513 10.861509 2.774477 18.030464 2.774477c5.6559105 0 10.741428 -0.9141979 15.256548 -2.7425861c4.527132 -1.8390236 7.997528 -4.406212 10.411196 -7.701565c2.4136696 -3.3059883 3.6205025 -6.8245735 3.6205025 -10.555767c0 -3.7630806 -1.0987587 -7.0850143 -3.296276 -9.96579c-2.1975212 -2.891407 -5.6018734 -5.2778854 -10.213062 -7.1594276c-3.1701908 -1.2756195 -9.018231 -2.7638435 -17.544128 -4.464672c-8.513884 -1.7114601 -13.779526 -3.3803978 -15.796921 -5.006817c-2.053419 -1.6264114 -3.0801287 -3.6993027 -3.0801287 -6.218651c0 -2.9020386 1.4470034 -5.378868 4.3410006 -7.430496c2.906012 -2.0622559 7.5292053 -3.0933838 13.869589 -3.0933838c6.0882087 0 10.687391 1.1321182 13.797539 3.396347c3.12216 2.2642288 4.9534245 5.612732 5.4937973 10.045517l10.050947 -0.6697006c-0.18012238 -4.113884 -1.4770203 -7.797241 -3.890688 -11.050072c-2.4136696 -3.2528381 -5.8660526 -5.713722 -10.357161 -7.38266c-4.4790936 -1.6795654 -9.654675 -2.5193481 -15.526733 -2.5193481z" fill-rule="evenodd"/><path stroke="#cc0000" stroke-width="4.0" stroke-linejoin="round" stroke-linecap="butt" d="m-257.44226 -88.514084l0 70.12728l59.116867 0l0 -8.275593l-48.63362 0l0 -23.870066l43.824295 0l0 -8.2277565l-43.824295 0l0 -21.478271l46.796356 0l0 -8.275597z" fill-rule="evenodd"/><path stroke="#cc0000" stroke-width="4.0" stroke-linejoin="round" stroke-linecap="butt" d="m-91.11528 -81.14737c1.2248535 3.7949753 3.0981445 8.642334 5.6198883 14.542084l8.267715 19.421333l-26.856567 0l8.70002 -20.569397c1.837265 -4.432785 3.2602463 -8.897453 4.268944 -13.39402zm-100.77966 -7.3667145l30.693222 70.12728l10.753433 0l31.017433 -70.12728l-10.699394 0l-21.398788 50.945126c-1.6211243 3.8268661 -3.0441132 7.6537304 -4.2689514 11.480595c-1.1167755 -3.571741 -2.5037384 -7.3986053 -4.1608734 -11.480595l-20.588242 -50.945126zm95.37593 0l-30.423035 70.12728l11.131699 0l8.700012 -21.239096l33.1249 0l9.240387 21.239096l11.942257 0l-32.422413 -70.12728z" fill-rule="evenodd"/><path stroke="#cc0000" stroke-width="4.0" stroke-linejoin="round" stroke-linecap="butt" d="m-48.10154 -88.514084l0 11.719772l2.4857178 13.107006l5.998146 0l2.593792 -13.107006l0 -11.719772z" fill-rule="evenodd"/><path stroke="#cc0000" stroke-width="4.0" stroke-linejoin="round" stroke-linecap="butt" d="m4.0445094 -89.70998c-5.331686 0 -10.177036 0.7972641 -14.536049 2.3917847c-4.3590136 1.5945282 -7.6733046 3.9331665 -9.942874 7.0159225c-2.2695694 3.0721207 -3.4043522 6.378105 -3.4043522 9.9179535c0 3.2209473 0.92464066 6.1336136 2.7739162 8.738007c1.86129 2.5937653 4.683239 4.7676353 8.465853 6.521614c2.9180174 1.3712921 8.015541 2.832943 15.292572 4.3849487c7.2770305 1.541378 11.978281 2.6788025 14.10375 3.4122849c3.314291 1.116169 5.6919346 2.4980888 7.1329308 4.145771c1.4409962 1.637043 2.1614952 3.5557938 2.1614952 5.756241c0 2.1685562 -0.7505169 4.172344 -2.2515564 6.011366c-1.489027 1.8283882 -3.7646027 3.2687798 -6.8267193 4.321167c-3.0621176 1.0523872 -6.592558 1.5785809 -10.591322 1.5785809c-4.503113 0 -8.555915 -0.69096375 -12.158405 -2.0728836c-3.602491 -1.3925552 -6.2623267 -3.2103157 -7.9795165 -5.4532814c-1.7051754 -2.253601 -2.7919292 -5.1343765 -3.260254 -8.642334l-9.888836 0.76537323c0.14410019 4.687908 1.5911026 8.892139 4.3410015 12.612705c2.7619114 3.7099285 6.562539 6.489723 11.401881 8.339375c4.851357 1.8496513 10.861509 2.774477 18.030464 2.774477c5.6559105 0 10.741428 -0.9141979 15.256548 -2.7425861c4.527132 -1.8390236 7.997528 -4.406212 10.411196 -7.701565c2.4136696 -3.3059883 3.6205025 -6.8245735 3.6205025 -10.555767c0 -3.7630806 -1.0987587 -7.0850143 -3.296276 -9.96579c-2.1975212 -2.891407 -5.6018734 -5.2778854 -10.213062 -7.1594276c-3.1701908 -1.2756195 -9.018231 -2.7638435 -17.544128 -4.464672c-8.513884 -1.7114601 -13.779526 -3.3803978 -15.796921 -5.006817c-2.053419 -1.6264114 -3.0801287 -3.6993027 -3.0801287 -6.218651c0 -2.9020386 1.4470034 -5.378868 4.3410006 -7.430496c2.906012 -2.0622559 7.5292053 -3.0933838 13.869589 -3.0933838c6.0882087 0 10.687391 1.1321182 13.797539 3.396347c3.12216 2.2642288 4.9534245 5.612732 5.4937973 10.045517l10.050947 -0.6697006c-0.18012238 -4.113884 -1.4770203 -7.797241 -3.890688 -11.050072c-2.4136696 -3.2528381 -5.8660526 -5.713722 -10.357161 -7.38266c-4.4790936 -1.6795654 -9.654675 -2.5193481 -15.526733 -2.5193481z" fill-rule="evenodd"/><path fill="#ff0000" d="m440.62115 134.59431c5.6364136 0 9.614014 0.35308838 11.9328 1.0592804c2.318756 0.69480896 4.1024475 1.9933014 5.351013 3.895462c1.2485657 1.8907776 1.8728638 4.0833893 1.8728638 6.5778503c0 2.631134 -0.6718445 4.818054 -2.015564 6.5607605c-1.3318176 1.742691 -3.317627 2.9899292 -5.9574585 3.741684c-1.9977112 0.5809021 -5.297516 0.87135315 -9.899414 0.87135315l-16.962738 0l0 -22.70639zm2.4614868 31.57367c4.994293 0 8.817291 0.4214325 11.469025 1.2643127c2.6636047 0.83148193 4.744568 2.2837372 6.242859 4.3567505c1.498291 2.0616302 2.2474365 4.4934387 2.2474365 7.2954254c0 2.3919525 -0.51727295 4.504822 -1.5518188 6.3386536c-1.0345154 1.8224335 -2.3544312 3.2120361 -3.9597473 4.1688232c-1.6053162 0.95677185 -3.6030273 1.6401825 -5.9931335 2.050232c-1.3555908 0.23919678 -3.7100525 0.35879517 -7.0633545 0.35879517l-19.53125 0l0 -25.832993zm-28.520966 -40.44095l0 75.14122l29.912231 0c4.994293 0 9.209686 -0.41574097 12.64624 -1.2472229c3.4484253 -0.84288025 6.314209 -2.0844116 8.597321 -3.7246094c2.2831116 -1.6401825 4.197571 -3.9694824 5.7434387 -6.9878845c1.5577393 -3.0298004 2.336609 -6.304489 2.336609 -9.824066c0 -4.3738403 -1.2783203 -8.166779 -3.8349 -11.378815c-2.5447083 -3.2120361 -6.1893616 -5.4843903 -10.933929 -6.817047c3.6743774 -1.7427063 6.421234 -4.032135 8.24057 -6.868286c1.8193665 -2.8361664 2.7290344 -5.8602753 2.7290344 -9.072311c0 -3.451233 -1.028595 -6.7543945 -3.0857544 -9.909485c-2.045288 -3.1664734 -4.8813477 -5.5071716 -8.508148 -7.022064c-3.6148987 -1.5262833 -8.418945 -2.2894287 -14.412079 -2.2894287z" fill-rule="evenodd"/><path fill="#ff0000" d="m514.9469 133.62045c1.2128906 4.0662994 3.0679321 9.260239 5.5650635 15.581802l8.187073 20.809921l-26.594604 0l8.615143 -22.040054c1.8193665 -4.7497253 3.228485 -9.533615 4.2273254 -14.351669zm-5.3510437 -7.8934174l-30.126251 75.14122l11.023102 0l8.615143 -22.757645l32.80182 0l9.1502075 22.757645l11.825806 0l-32.1062 -75.14122z" fill-rule="evenodd"/><path fill="#ff0000" d="m596.55 134.0305c5.8148193 0 10.065918 1.1447144 12.753296 3.434143c2.6992798 2.2894287 4.04895 5.211029 4.04895 8.7647705c0 2.426117 -0.6956177 4.6756744 -2.086914 6.748703c-1.3912354 2.0616302 -3.4246216 3.5651245 -6.1001587 4.5105133c-2.675537 0.93400574 -6.385559 1.401001 -11.130127 1.401001l-22.313782 0l0 -24.85913zm-35.209717 -8.303467l0 75.14122l10.380981 0l0 -33.36763l12.039795 0c2.675537 0 4.6019287 0.11959839 5.779114 0.35879517c1.6053467 0.375885 3.1809082 1.0422058 4.7267456 1.9989777c1.5577393 0.9567871 3.317627 2.6311493 5.279663 5.0230865c1.9620361 2.3919525 4.4592285 5.8431854 7.491455 10.353699l10.380981 15.633072l13.056519 0l-13.645142 -20.451126c-2.7111816 -3.9979706 -5.5828857 -7.329605 -8.615112 -9.994904c-1.4269409 -1.2301483 -3.513855 -2.4773712 -6.260742 -3.741684c7.5270996 -0.99095154 13.092163 -3.31456 16.69519 -6.97081c3.6030273 -3.6562653 5.404541 -8.149704 5.404541 -13.480316c0 -4.1346436 -1.0880127 -7.910507 -3.2640991 -11.32756c-2.1760864 -3.4170685 -5.083496 -5.7976227 -8.722168 -7.14167c-3.638733 -1.3554382 -8.954041 -2.0331497 -15.946045 -2.0331497z" fill-rule="evenodd"/><path fill="#ff0000" d="m665.9528 134.59431c5.6364136 0 9.614014 0.35308838 11.932739 1.0592804c2.3187866 0.69480896 4.102478 1.9933014 5.351074 3.895462c1.2485352 1.8907776 1.8728638 4.0833893 1.8728638 6.5778503c0 2.631134 -0.671875 4.818054 -2.015564 6.5607605c-1.3318481 1.742691 -3.317627 2.9899292 -5.9575195 3.741684c-1.9976807 0.5809021 -5.2974854 0.87135315 -9.899353 0.87135315l-16.962769 0l0 -22.70639zm2.4614258 31.57367c4.9943237 0 8.817322 0.4214325 11.469055 1.2643127c2.6636353 0.83148193 4.744568 2.2837372 6.242859 4.3567505c1.498291 2.0616302 2.2474365 4.4934387 2.2474365 7.2954254c0 2.3919525 -0.51727295 4.504822 -1.5518188 6.3386536c-1.0344849 1.8224335 -2.3544312 3.2120361 -3.9597168 4.1688232c-1.6053467 0.95677185 -3.6030273 1.6401825 -5.993164 2.050232c-1.3555908 0.23919678 -3.710022 0.35879517 -7.0633545 0.35879517l-19.53125 0l0 -25.832993zm-28.520935 -40.44095l0 75.14122l29.912231 0c4.9942627 0 9.209717 -0.41574097 12.64624 -1.2472229c3.4484253 -0.84288025 6.314209 -2.0844116 8.597351 -3.7246094c2.283081 -1.6401825 4.197571 -3.9694824 5.743408 -6.9878845c1.5577393 -3.0298004 2.336609 -6.304489 2.336609 -9.824066c0 -4.3738403 -1.2783203 -8.166779 -3.8349 -11.378815c-2.5447388 -3.2120361 -6.189331 -5.4843903 -10.933899 -6.817047c3.6743164 -1.7427063 6.4212036 -4.032135 8.24054 -6.868286c1.8193359 -2.8361664 2.729004 -5.8602753 2.729004 -9.072311c0 -3.451233 -1.0285645 -6.7543945 -3.0857544 -9.909485c-2.045227 -3.1664734 -4.8812866 -5.5071716 -8.508118 -7.022064c-3.6149292 -1.5262833 -8.418945 -2.2894287 -14.412048 -2.2894287z" fill-rule="evenodd"/><path fill="#ff0000" d="m713.63043 125.727036l0 75.14122l58.540222 0l0 -8.867279l-48.15924 0l0 -25.576721l43.39679 0l0 -8.816025l-43.39679 0l0 -23.013916l46.339844 0l0 -8.867279z" fill-rule="evenodd"/><path fill="#ff0000" d="m821.88165 134.0305c5.8147583 0 10.065857 1.1447144 12.753296 3.434143c2.6992798 2.2894287 4.048889 5.211029 4.048889 8.7647705c0 2.426117 -0.6956177 4.6756744 -2.086853 6.748703c-1.3912964 2.0616302 -3.4246826 3.5651245 -6.1001587 4.5105133c-2.675537 0.93400574 -6.385559 1.401001 -11.130127 1.401001l-22.313782 0l0 -24.85913zm-35.209717 -8.303467l0 75.14122l10.380981 0l0 -33.36763l12.039795 0c2.675476 0 4.6018677 0.11959839 5.779114 0.35879517c1.6052856 0.375885 3.1808472 1.0422058 4.7267456 1.9989777c1.5577393 0.9567871 3.317627 2.6311493 5.279663 5.0230865c1.9620361 2.3919525 4.4591675 5.8431854 7.491394 10.353699l10.3810425 15.633072l13.0564575 0l-13.645081 -20.451126c-2.7111816 -3.9979706 -5.582947 -7.329605 -8.615173 -9.994904c-1.4269409 -1.2301483 -3.513855 -2.4773712 -6.260681 -3.741684c7.5270996 -0.99095154 13.092163 -3.31456 16.69519 -6.97081c3.6030273 -3.6562653 5.404541 -8.149704 5.404541 -13.480316c0 -4.1346436 -1.0880737 -7.910507 -3.2641602 -11.32756c-2.1760864 -3.4170685 -5.083435 -5.7976227 -8.722168 -7.14167c-3.6386719 -1.3554382 -8.954041 -2.0331497 -15.946045 -2.0331497z" fill-rule="evenodd"/><path stroke="#cc0000" stroke-width="4.0" stroke-linejoin="round" stroke-linecap="butt" d="m440.62115 134.59431c5.6364136 0 9.614014 0.35308838 11.9328 1.0592804c2.318756 0.69480896 4.1024475 1.9933014 5.351013 3.895462c1.2485657 1.8907776 1.8728638 4.0833893 1.8728638 6.5778503c0 2.631134 -0.6718445 4.818054 -2.015564 6.5607605c-1.3318176 1.742691 -3.317627 2.9899292 -5.9574585 3.741684c-1.9977112 0.5809021 -5.297516 0.87135315 -9.899414 0.87135315l-16.962738 0l0 -22.70639zm2.4614868 31.57367c4.994293 0 8.817291 0.4214325 11.469025 1.2643127c2.6636047 0.83148193 4.744568 2.2837372 6.242859 4.3567505c1.498291 2.0616302 2.2474365 4.4934387 2.2474365 7.2954254c0 2.3919525 -0.51727295 4.504822 -1.5518188 6.3386536c-1.0345154 1.8224335 -2.3544312 3.2120361 -3.9597473 4.1688232c-1.6053162 0.95677185 -3.6030273 1.6401825 -5.9931335 2.050232c-1.3555908 0.23919678 -3.7100525 0.35879517 -7.0633545 0.35879517l-19.53125 0l0 -25.832993zm-28.520966 -40.44095l0 75.14122l29.912231 0c4.994293 0 9.209686 -0.41574097 12.64624 -1.2472229c3.4484253 -0.84288025 6.314209 -2.0844116 8.597321 -3.7246094c2.2831116 -1.6401825 4.197571 -3.9694824 5.7434387 -6.9878845c1.5577393 -3.0298004 2.336609 -6.304489 2.336609 -9.824066c0 -4.3738403 -1.2783203 -8.166779 -3.8349 -11.378815c-2.5447083 -3.2120361 -6.1893616 -5.4843903 -10.933929 -6.817047c3.6743774 -1.7427063 6.421234 -4.032135 8.24057 -6.868286c1.8193665 -2.8361664 2.7290344 -5.8602753 2.7290344 -9.072311c0 -3.451233 -1.028595 -6.7543945 -3.0857544 -9.909485c-2.045288 -3.1664734 -4.8813477 -5.5071716 -8.508148 -7.022064c-3.6148987 -1.5262833 -8.418945 -2.2894287 -14.412079 -2.2894287z" fill-rule="evenodd"/><path stroke="#cc0000" stroke-width="4.0" stroke-linejoin="round" stroke-linecap="butt" d="m514.9469 133.62045c1.2128906 4.0662994 3.0679321 9.260239 5.5650635 15.581802l8.187073 20.809921l-26.594604 0l8.615143 -22.040054c1.8193665 -4.7497253 3.228485 -9.533615 4.2273254 -14.351669zm-5.3510437 -7.8934174l-30.126251 75.14122l11.023102 0l8.615143 -22.757645l32.80182 0l9.1502075 22.757645l11.825806 0l-32.1062 -75.14122z" fill-rule="evenodd"/><path stroke="#cc0000" stroke-width="4.0" stroke-linejoin="round" stroke-linecap="butt" d="m596.55 134.0305c5.8148193 0 10.065918 1.1447144 12.753296 3.434143c2.6992798 2.2894287 4.04895 5.211029 4.04895 8.7647705c0 2.426117 -0.6956177 4.6756744 -2.086914 6.748703c-1.3912354 2.0616302 -3.4246216 3.5651245 -6.1001587 4.5105133c-2.675537 0.93400574 -6.385559 1.401001 -11.130127 1.401001l-22.313782 0l0 -24.85913zm-35.209717 -8.303467l0 75.14122l10.380981 0l0 -33.36763l12.039795 0c2.675537 0 4.6019287 0.11959839 5.779114 0.35879517c1.6053467 0.375885 3.1809082 1.0422058 4.7267456 1.9989777c1.5577393 0.9567871 3.317627 2.6311493 5.279663 5.0230865c1.9620361 2.3919525 4.4592285 5.8431854 7.491455 10.353699l10.380981 15.633072l13.056519 0l-13.645142 -20.451126c-2.7111816 -3.9979706 -5.5828857 -7.329605 -8.615112 -9.994904c-1.4269409 -1.2301483 -3.513855 -2.4773712 -6.260742 -3.741684c7.5270996 -0.99095154 13.092163 -3.31456 16.69519 -6.97081c3.6030273 -3.6562653 5.404541 -8.149704 5.404541 -13.480316c0 -4.1346436 -1.0880127 -7.910507 -3.2640991 -11.32756c-2.1760864 -3.4170685 -5.083496 -5.7976227 -8.722168 -7.14167c-3.638733 -1.3554382 -8.954041 -2.0331497 -15.946045 -2.0331497z" fill-rule="evenodd"/><path stroke="#cc0000" stroke-width="4.0" stroke-linejoin="round" stroke-linecap="butt" d="m665.9528 134.59431c5.6364136 0 9.614014 0.35308838 11.932739 1.0592804c2.3187866 0.69480896 4.102478 1.9933014 5.351074 3.895462c1.2485352 1.8907776 1.8728638 4.0833893 1.8728638 6.5778503c0 2.631134 -0.671875 4.818054 -2.015564 6.5607605c-1.3318481 1.742691 -3.317627 2.9899292 -5.9575195 3.741684c-1.9976807 0.5809021 -5.2974854 0.87135315 -9.899353 0.87135315l-16.962769 0l0 -22.70639zm2.4614258 31.57367c4.9943237 0 8.817322 0.4214325 11.469055 1.2643127c2.6636353 0.83148193 4.744568 2.2837372 6.242859 4.3567505c1.498291 2.0616302 2.2474365 4.4934387 2.2474365 7.2954254c0 2.3919525 -0.51727295 4.504822 -1.5518188 6.3386536c-1.0344849 1.8224335 -2.3544312 3.2120361 -3.9597168 4.1688232c-1.6053467 0.95677185 -3.6030273 1.6401825 -5.993164 2.050232c-1.3555908 0.23919678 -3.710022 0.35879517 -7.0633545 0.35879517l-19.53125 0l0 -25.832993zm-28.520935 -40.44095l0 75.14122l29.912231 0c4.9942627 0 9.209717 -0.41574097 12.64624 -1.2472229c3.4484253 -0.84288025 6.314209 -2.0844116 8.597351 -3.7246094c2.283081 -1.6401825 4.197571 -3.9694824 5.743408 -6.9878845c1.5577393 -3.0298004 2.336609 -6.304489 2.336609 -9.824066c0 -4.3738403 -1.2783203 -8.166779 -3.8349 -11.378815c-2.5447388 -3.2120361 -6.189331 -5.4843903 -10.933899 -6.817047c3.6743164 -1.7427063 6.4212036 -4.032135 8.24054 -6.868286c1.8193359 -2.8361664 2.729004 -5.8602753 2.729004 -9.072311c0 -3.451233 -1.0285645 -6.7543945 -3.0857544 -9.909485c-2.045227 -3.1664734 -4.8812866 -5.5071716 -8.508118 -7.022064c-3.6149292 -1.5262833 -8.418945 -2.2894287 -14.412048 -2.2894287z" fill-rule="evenodd"/><path stroke="#cc0000" stroke-width="4.0" stroke-linejoin="round" stroke-linecap="butt" d="m713.63043 125.727036l0 75.14122l58.540222 0l0 -8.867279l-48.15924 0l0 -25.576721l43.39679 0l0 -8.816025l-43.39679 0l0 -23.013916l46.339844 0l0 -8.867279z" fill-rule="evenodd"/><path stroke="#cc0000" stroke-width="4.0" stroke-linejoin="round" stroke-linecap="butt" d="m821.88165 134.0305c5.8147583 0 10.065857 1.1447144 12.753296 3.434143c2.6992798 2.2894287 4.048889 5.211029 4.048889 8.7647705c0 2.426117 -0.6956177 4.6756744 -2.086853 6.748703c-1.3912964 2.0616302 -3.4246826 3.5651245 -6.1001587 4.5105133c-2.675537 0.93400574 -6.385559 1.401001 -11.130127 1.401001l-22.313782 0l0 -24.85913zm-35.209717 -8.303467l0 75.14122l10.380981 0l0 -33.36763l12.039795 0c2.675476 0 4.6018677 0.11959839 5.779114 0.35879517c1.6052856 0.375885 3.1808472 1.0422058 4.7267456 1.9989777c1.5577393 0.9567871 3.317627 2.6311493 5.279663 5.0230865c1.9620361 2.3919525 4.4591675 5.8431854 7.491394 10.353699l10.3810425 15.633072l13.0564575 0l-13.645081 -20.451126c-2.7111816 -3.9979706 -5.582947 -7.329605 -8.615173 -9.994904c-1.4269409 -1.2301483 -3.513855 -2.4773712 -6.260681 -3.741684c7.5270996 -0.99095154 13.092163 -3.31456 16.69519 -6.97081c3.6030273 -3.6562653 5.404541 -8.149704 5.404541 -13.480316c0 -4.1346436 -1.0880737 -7.910507 -3.2641602 -11.32756c-2.1760864 -3.4170685 -5.083435 -5.7976227 -8.722168 -7.14167c-3.6386719 -1.3554382 -8.954041 -2.0331497 -15.946045 -2.0331497z" fill-rule="evenodd"/><path fill="#ff0000" d="m45.860775 12.469474c-5.2913857 0 -10.100113 0.8254452 -14.426178 2.4763355c-4.326067 1.6508913 -7.615307 4.072196 -9.867722 7.263919c-2.2524147 3.1807175 -3.378622 6.6035614 -3.378622 10.268539c0 3.334797 0.9176445 6.3504257 2.7529526 9.046879c1.8472214 2.6854515 4.6478386 4.936161 8.401863 6.752144c2.8959599 1.4197655 7.954958 2.9330826 15.176985 4.5399475c7.222027 1.5958633 11.887741 2.7734947 13.997147 3.5329056c3.2892418 1.1556244 5.6489143 2.5863914 7.079014 4.2923164c1.4301071 1.6949081 2.1451569 3.6814842 2.1451569 5.959713c0 2.2452087 -0.7448425 4.319824 -2.2345352 6.223854c-1.477768 1.8930206 -3.7361488 3.3843307 -6.77512 4.473915c-3.038971 1.089592 -6.5427284 1.6343842 -10.511269 1.6343842c-4.4690742 0 -8.491245 -0.71539307 -12.066505 -2.1461563c-3.5752602 -1.4417801 -6.2149925 -3.3237991 -7.9192047 -5.6460495c-1.6922874 -2.3332596 -2.7708263 -5.3158646 -3.235611 -8.947826l-9.814092 0.79242706c0.14301014 4.8536186 1.5790682 9.206463 4.3081903 13.058544c2.7410355 3.841072 6.5129356 6.719124 11.315701 8.634155c4.8146896 1.9150391 10.779411 2.872551 17.894184 2.872551c5.613159 0 10.66024 -0.9465103 15.141232 -2.839531c4.492916 -1.9040298 7.9370766 -4.561966 10.3325 -7.9738007c2.3954315 -3.4228516 3.5931396 -7.065811 3.5931396 -10.928894c0 -3.896103 -1.0904541 -7.3354607 -3.2713623 -10.318066c-2.1809082 -2.9936142 -5.559532 -5.464447 -10.135864 -7.4124985c-3.1462326 -1.320713 -8.950069 -2.8615417 -17.411526 -4.6224937c-8.449528 -1.7719536 -13.675373 -3.4998856 -15.677519 -5.183796c-2.037899 -1.6839066 -3.0568485 -3.8300667 -3.0568485 -6.4384727c0 -3.0046215 1.4360657 -5.569002 4.3081894 -7.6931496c2.8840485 -2.1351528 7.4722977 -3.2027283 13.764755 -3.2027283c6.0421906 0 10.606613 1.1721325 13.693253 3.5163975c3.0985603 2.344265 4.9159813 5.8111343 5.4522743 10.40061l9.974976 -0.69337463c-0.17876434 -4.2592964 -1.4658585 -8.072853 -3.8612823 -11.44067c-2.395424 -3.367817 -5.8217163 -5.9156914 -10.278873 -7.6436234c-4.44524 -1.7389383 -9.581703 -2.608407 -15.409378 -2.608407z" fill-rule="evenodd"/><path fill="#ff0000" d="m92.30342 13.707642l0 72.60616l10.404007 0l0 -34.222958l40.865234 0l0 34.222958l10.404007 0l0 -72.60616l-10.404007 0l0 29.815083l-40.865234 0l0 -29.815083z" fill-rule="evenodd"/><path fill="#ff0000" d="m205.83585 20.690908c5.184128 0 9.855789 1.216156 14.015015 3.648468c4.1711426 2.4213066 7.335251 5.8386517 9.492325 10.252031c2.168991 4.4023743 3.253479 9.558655 3.253479 15.468842c0 9.34404 -2.5324707 16.558434 -7.5974274 21.643173c-5.0530396 5.0847473 -11.494461 7.6271133 -19.32428 7.6271133c-7.6868134 0 -14.080582 -2.5148544 -19.181274 -7.5445633c-5.088791 -5.0407257 -7.633194 -11.93594 -7.633194 -20.685661c0 -10.928894 2.651657 -18.7266 7.954956 -23.393118c5.3152313 -4.6775227 11.65535 -7.016283 19.020401 -7.016285zm-0.053634644 -8.270962c-11.083313 0 -20.128723 3.4118404 -27.13623 10.235521c-7.0075226 6.8126755 -10.511276 16.244762 -10.511276 28.296265c0 6.3724365 1.5016174 12.414696 4.504837 18.126774c3.0032196 5.712082 7.4186707 10.219017 13.246338 13.520798c5.8276825 3.3017807 12.44191 4.952667 19.842697 4.952667c6.8287506 0 13.1927185 -1.4913025 19.091904 -4.473915c5.89917 -2.9936142 10.457642 -7.3959885 13.675369 -13.207123c3.217743 -5.8111343 4.826599 -12.398186 4.826599 -19.761158c0 -7.263916 -1.5314026 -13.75742 -4.594208 -19.480507c-3.050888 -5.734091 -7.4901733 -10.202501 -13.317841 -13.40523c-5.8276825 -3.2027283 -12.370407 -4.8040924 -19.62819 -4.8040924z" fill-rule="evenodd"/><path fill="#ff0000" d="m287.24454 22.275763c4.71933 0 7.954956 0.21461678 9.706848 0.6438484c2.7171936 0.6933727 4.9040527 2.1241474 6.5605774 4.2923145c1.668457 2.1571655 2.5026855 4.7545643 2.5026855 7.792202c0 4.193264 -1.4122314 7.4455185 -4.236664 9.756763c-2.824463 2.3112488 -7.5974426 3.4668694 -14.318939 3.4668694l-20.325348 0l0 -25.951998zm-30.514862 -8.568121l0 72.60616l10.404022 0l0 -29.517921l20.16446 0c11.11908 0 18.805878 -2.135151 23.060455 -6.4054565c4.254547 -4.281307 6.381836 -9.509129 6.381836 -15.683456c0 -3.5989418 -0.79849243 -6.9007244 -2.3954468 -9.905344c-1.585022 -3.0046215 -3.6825256 -5.337881 -6.29245 -6.999777c-2.6099243 -1.6729031 -5.8455505 -2.8065128 -9.706818 -3.400834c-2.7529602 -0.4622488 -6.73938 -0.6933737 -11.959259 -0.6933737z" fill-rule="evenodd"/><path stroke="#cc0000" stroke-width="4.0" stroke-linejoin="round" stroke-linecap="butt" d="m45.860775 12.469474c-5.2913857 0 -10.100113 0.8254452 -14.426178 2.4763355c-4.326067 1.6508913 -7.615307 4.072196 -9.867722 7.263919c-2.2524147 3.1807175 -3.378622 6.6035614 -3.378622 10.268539c0 3.334797 0.9176445 6.3504257 2.7529526 9.046879c1.8472214 2.6854515 4.6478386 4.936161 8.401863 6.752144c2.8959599 1.4197655 7.954958 2.9330826 15.176985 4.5399475c7.222027 1.5958633 11.887741 2.7734947 13.997147 3.5329056c3.2892418 1.1556244 5.6489143 2.5863914 7.079014 4.2923164c1.4301071 1.6949081 2.1451569 3.6814842 2.1451569 5.959713c0 2.2452087 -0.7448425 4.319824 -2.2345352 6.223854c-1.477768 1.8930206 -3.7361488 3.3843307 -6.77512 4.473915c-3.038971 1.089592 -6.5427284 1.6343842 -10.511269 1.6343842c-4.4690742 0 -8.491245 -0.71539307 -12.066505 -2.1461563c-3.5752602 -1.4417801 -6.2149925 -3.3237991 -7.9192047 -5.6460495c-1.6922874 -2.3332596 -2.7708263 -5.3158646 -3.235611 -8.947826l-9.814092 0.79242706c0.14301014 4.8536186 1.5790682 9.206463 4.3081903 13.058544c2.7410355 3.841072 6.5129356 6.719124 11.315701 8.634155c4.8146896 1.9150391 10.779411 2.872551 17.894184 2.872551c5.613159 0 10.66024 -0.9465103 15.141232 -2.839531c4.492916 -1.9040298 7.9370766 -4.561966 10.3325 -7.9738007c2.3954315 -3.4228516 3.5931396 -7.065811 3.5931396 -10.928894c0 -3.896103 -1.0904541 -7.3354607 -3.2713623 -10.318066c-2.1809082 -2.9936142 -5.559532 -5.464447 -10.135864 -7.4124985c-3.1462326 -1.320713 -8.950069 -2.8615417 -17.411526 -4.6224937c-8.449528 -1.7719536 -13.675373 -3.4998856 -15.677519 -5.183796c-2.037899 -1.6839066 -3.0568485 -3.8300667 -3.0568485 -6.4384727c0 -3.0046215 1.4360657 -5.569002 4.3081894 -7.6931496c2.8840485 -2.1351528 7.4722977 -3.2027283 13.764755 -3.2027283c6.0421906 0 10.606613 1.1721325 13.693253 3.5163975c3.0985603 2.344265 4.9159813 5.8111343 5.4522743 10.40061l9.974976 -0.69337463c-0.17876434 -4.2592964 -1.4658585 -8.072853 -3.8612823 -11.44067c-2.395424 -3.367817 -5.8217163 -5.9156914 -10.278873 -7.6436234c-4.44524 -1.7389383 -9.581703 -2.608407 -15.409378 -2.608407z" fill-rule="evenodd"/><path stroke="#cc0000" stroke-width="4.0" stroke-linejoin="round" stroke-linecap="butt" d="m92.30342 13.707642l0 72.60616l10.404007 0l0 -34.222958l40.865234 0l0 34.222958l10.404007 0l0 -72.60616l-10.404007 0l0 29.815083l-40.865234 0l0 -29.815083z" fill-rule="evenodd"/><path stroke="#cc0000" stroke-width="4.0" stroke-linejoin="round" stroke-linecap="butt" d="m205.83585 20.690908c5.184128 0 9.855789 1.216156 14.015015 3.648468c4.1711426 2.4213066 7.335251 5.8386517 9.492325 10.252031c2.168991 4.4023743 3.253479 9.558655 3.253479 15.468842c0 9.34404 -2.5324707 16.558434 -7.5974274 21.643173c-5.0530396 5.0847473 -11.494461 7.6271133 -19.32428 7.6271133c-7.6868134 0 -14.080582 -2.5148544 -19.181274 -7.5445633c-5.088791 -5.0407257 -7.633194 -11.93594 -7.633194 -20.685661c0 -10.928894 2.651657 -18.7266 7.954956 -23.393118c5.3152313 -4.6775227 11.65535 -7.016283 19.020401 -7.016285zm-0.053634644 -8.270962c-11.083313 0 -20.128723 3.4118404 -27.13623 10.235521c-7.0075226 6.8126755 -10.511276 16.244762 -10.511276 28.296265c0 6.3724365 1.5016174 12.414696 4.504837 18.126774c3.0032196 5.712082 7.4186707 10.219017 13.246338 13.520798c5.8276825 3.3017807 12.44191 4.952667 19.842697 4.952667c6.8287506 0 13.1927185 -1.4913025 19.091904 -4.473915c5.89917 -2.9936142 10.457642 -7.3959885 13.675369 -13.207123c3.217743 -5.8111343 4.826599 -12.398186 4.826599 -19.761158c0 -7.263916 -1.5314026 -13.75742 -4.594208 -19.480507c-3.050888 -5.734091 -7.4901733 -10.202501 -13.317841 -13.40523c-5.8276825 -3.2027283 -12.370407 -4.8040924 -19.62819 -4.8040924z" fill-rule="evenodd"/><path stroke="#cc0000" stroke-width="4.0" stroke-linejoin="round" stroke-linecap="butt" d="m287.24454 22.275763c4.71933 0 7.954956 0.21461678 9.706848 0.6438484c2.7171936 0.6933727 4.9040527 2.1241474 6.5605774 4.2923145c1.668457 2.1571655 2.5026855 4.7545643 2.5026855 7.792202c0 4.193264 -1.4122314 7.4455185 -4.236664 9.756763c-2.824463 2.3112488 -7.5974426 3.4668694 -14.318939 3.4668694l-20.325348 0l0 -25.951998zm-30.514862 -8.568121l0 72.60616l10.404022 0l0 -29.517921l20.16446 0c11.11908 0 18.805878 -2.135151 23.060455 -6.4054565c4.254547 -4.281307 6.381836 -9.509129 6.381836 -15.683456c0 -3.5989418 -0.79849243 -6.9007244 -2.3954468 -9.905344c-1.585022 -3.0046215 -3.6825256 -5.337881 -6.29245 -6.999777c-2.6099243 -1.6729031 -5.8455505 -2.8065128 -9.706818 -3.400834c-2.7529602 -0.4622488 -6.73938 -0.6933737 -11.959259 -0.6933737z" fill-rule="evenodd"/></g></svg>